<svg width="85" height="100" viewBox="0 0 85 100" fill="none" xmlns="http://www.w3.org/2000/svg">
<rect x="0.364014" y="20" width="37.1359" height="29.6907" fill="#2D2D2D"/>
<path d="M0 66.701L6.5534 63.6082L11.6505 60.5154L13.835 58.6597L15.6553 56.4948L16.7476 54.6391L17.8398 51.5463V49.6907H37.5L37.1359 54.3298L36.0437 59.5876L33.4951 64.2268L29.4903 68.2474L25.1214 71.6494L19.6602 75.0515L13.835 77.835L8.37379 80L0 66.701Z" fill="#2D2D2D"/>
<rect x="47.864" y="20" width="37.1359" height="29.6907" fill="#2D2D2D"/>
<path d="M47.5 66.701L54.0534 63.6082L59.1505 60.5154L61.335 58.6597L63.1553 56.4948L64.2476 54.6391L65.3398 51.5463V49.6907H85L84.6359 54.3298L83.5437 59.5876L80.9951 64.2268L76.9903 68.2474L72.6214 71.6494L67.1602 75.0515L61.335 77.835L55.8738 80L47.5 66.701Z" fill="#2D2D2D"/>
</svg>
