<svg width="413" height="271" viewBox="0 0 413 271" fill="none" xmlns="http://www.w3.org/2000/svg">
<path d="M340.531 126.385L406.732 109L406.732 108L389.955 105L369.316 117L366.611 118.5L348.24 133.845L345.972 170.15L369.316 120L402.198 177.112L406.732 119.422L406.732 184.075L376.806 161.695L406.732 198L329.196 193.027L356.401 176.118L338.264 175.62L340.531 126.385Z" fill="#FEFEFE"/>
<path d="M340.916 124L406.732 108L390.053 102.5L348.58 131.5L346.326 168L369.106 117.147L402.224 175L406.732 117L406.732 182L376.98 159.5L406.732 197L329.196 193L335.056 186L358.497 175L337.761 179.5L329.196 175L340.916 124Z" fill="#E7C994"/>
<path d="M328.744 197.5L406.281 211.5L333.703 204L353.989 218.5L361.202 206.842L355.792 225.5L398.167 210.661L406.281 232.5L395.462 243L373.373 227L355.792 232.5L312.065 230L338.662 222L294.484 232.5L318.827 206.842L276.903 237.5L211.989 268L208.383 232.5L253.462 204L291.779 211.5L301.246 192L328.744 197.5Z" fill="#FEFEFE"/>
<path d="M329.195 193L406.732 207L334.154 199.5L354.44 214L361.653 202.342L356.243 221L398.618 206.161L406.732 228L395.913 238.5L373.824 222.5L356.243 228L312.516 225.5L339.113 217.5L294.935 228L319.278 202.342L277.354 233L212.44 263.5L208.833 228L253.913 199.5L292.23 207L301.697 187.5L329.195 193Z" fill="#E7C994"/>
<path d="M269.691 230L298.992 247L313.418 227.5L330.999 240L356.243 230L345.424 249L375.627 224L365.71 238L398.167 240L373.373 252L409.888 265.5L356.243 270L328.294 243L308.459 265.5L310.713 232L298.992 265.5L289.976 252L276.903 257L278.707 235L272.395 265.5L269.691 230Z" fill="#FEFEFE"/>
<path d="M268.789 228L298.091 245L312.516 225.5L330.097 238L355.341 228L344.522 247L374.726 222L364.808 236L397.265 238L372.472 250L408.986 263.5L355.341 268L327.392 241L307.557 263.5L309.811 230L298.091 263.5L289.075 250L276.002 255L277.805 233L271.494 263.5L268.789 228Z" fill="#E7C994"/>
<path d="M168.262 87.5L232.275 73L227.316 41.5L268.789 52L304.852 48.5L304.852 107L328.294 32L348.579 78L334.154 154L320.63 133L315.671 94L304.852 121L321.532 151.5L321.532 152.5L300.795 166L250.306 157L241.29 154L275.551 146L268.789 87.5L242.192 150.5L232.275 115L205.678 139L227.316 94L190.351 133L218.751 96.5L161.5 125.5L168.262 87.5Z" fill="#FEFEFE"/>
<path d="M304.212 183.575L204.68 196.319L176.119 179.803L152.284 224.295" stroke="#E7C994" stroke-width="8"/>
<path d="M305.024 185.514L202.183 212.357L176.067 182.474L154.778 258.344" stroke="#E7C994" stroke-width="3"/>
<path d="M156.547 257.515C156.909 258.256 156.64 259.228 155.946 259.687C155.252 260.145 154.395 259.917 154.032 259.176L156.547 257.515ZM154.032 259.176L131.407 212.986L133.922 211.325L156.547 257.515L154.032 259.176Z" fill="#FEFEFE"/>
<path d="M5.66217 161.282C4.38361 160.76 3.66705 159.265 4.06168 157.942C4.45631 156.619 5.81269 155.97 7.09125 156.491L5.66217 161.282ZM7.09125 156.491L133.62 208.121L132.191 212.911L5.66217 161.282L7.09125 156.491Z" fill="#FEFEFE"/>
<line y1="-2" x2="61.5137" y2="-2" transform="matrix(0.864026 -0.503111 -0.39145 -0.920352 357.851 31.7996)" stroke="#E7C994" stroke-width="4"/>
<line y1="-2" x2="81.3023" y2="-2" transform="matrix(0.174166 0.984785 0.971796 -0.235441 111.623 116.102)" stroke="#E7C994" stroke-width="4"/>
<path d="M293.793 173.222C249.942 165.667 227.909 161.436 184.058 153.881C183.55 152.088 112.634 122.077 112.634 122.077L113.652 124.468L121.8 136.43L119.74 147.177L118.198 153.147L118.702 156.732L126.357 159.137L151.874 165.163L124.767 193.776C124.767 193.776 160.903 169.461 184.058 153.881C206.371 163.957 241.196 179.683 241.196 179.683L212.603 180.818L203.39 194.536L292.759 180.985L293.793 173.222Z" fill="#FEFEFE"/>
<path d="M69.0017 93.3167L6.44535 118.708L20.1587 124.079L6.3922 150.165L41.5208 114.627L64.8836 124.171L76.0248 147.936L79.0852 141.413L119.67 188.39L82.686 115.899L107.58 121.886L69.0017 93.3167Z" fill="#FEFEFE"/>
<path d="M68.7829 88.5377L6.44861 116.48L19.7178 119.494L6.39513 148.136L41.177 109.982L64.646 119.588L76.3402 148.282L78.907 139.925L119.669 188.39L82.5273 112.458L108.553 119.679L68.7829 88.5377Z" fill="#E7C994"/>
<path d="M5.64798 157.69C4.37304 157.157 3.66873 155.656 4.07487 154.337C4.48101 153.019 5.8438 152.383 7.11875 152.917L5.64798 157.69ZM7.11875 152.917L136.196 206.941L134.726 211.714L5.64798 157.69L7.11875 152.917Z" fill="#E7C994"/>
<path d="M132.379 209.939L134.436 211.714L135.436 213.529" stroke="#FEFEFE" stroke-width="5"/>
<path d="M152.252 224.396L74.2915 152.795L6.7625 152.656" stroke="#E7C994" stroke-width="8" stroke-linecap="round"/>
<path d="M156.572 256.37C156.909 257.127 156.609 258.09 155.902 258.521C155.195 258.953 154.348 258.689 154.011 257.932L156.572 256.37ZM154.011 257.932L131.632 207.714L134.192 206.152L156.572 256.37L154.011 257.932Z" fill="#E7C994"/>
<path d="M302.477 170.851L186.739 152.692L112.635 122.077L123.28 136.434L118.444 156.731L154.175 164.57L125.317 193.777L186.739 152.692L244.848 177.301L214.971 178.434L203.741 193.94L301.392 181.003L302.477 170.851Z" fill="#E7C994"/>
<path d="M408.1 22.1411L390.659 47.4529L359.809 36.6159L350.748 84.7584L376.053 55.6607L379.381 78.4809L340.015 125.927L407.976 95.0166L408.004 78.5404L408.1 22.1411Z" fill="#FEFEFE"/>
<path d="M408.806 18.958L391.365 44.2698L360.515 33.4328L351.454 81.5753L376.759 52.4776L380.088 75.2978L340.721 122.744L408.683 91.8335L408.711 75.3573L408.806 18.958Z" fill="#E7C994"/>
<line y1="-2" x2="129.171" y2="-2" transform="matrix(0.199281 -0.979866 -0.963528 -0.26798 332.109 158.37)" stroke="#E7C994" stroke-width="4"/>
<ellipse cx="20.422" cy="22.6967" rx="20.422" ry="22.6967" transform="matrix(-0.999998 -0.00207854 -0.00168956 0.999999 339.267 152.412)" fill="#E7C994"/>
<path d="M304.732 175.821L113.209 118.858L68.7915 84.8604L1.27357 107.481" stroke="#E7C994" stroke-width="6"/>
<path d="M167.759 92.5L231.745 78L226.788 46.5L268.243 57L304.292 53.5V112L327.723 37L348 83L333.581 159L320.063 138L315.106 99L304.292 126L320.063 154L300.236 171L240.306 159L275.002 151L268.243 92.5L241.658 155.5L231.745 120L205.159 144L226.788 99L189.839 138L218.227 101.5L161 130.5L167.759 92.5Z" fill="#E7C994"/>
</svg>
