<svg width="198" height="130" viewBox="0 0 198 130" fill="none" xmlns="http://www.w3.org/2000/svg">
<path d="M9.30762 5H187.085V123.239L9.30762 125.26V5Z" fill="#F4414C"/>
<path d="M0 15.1059C0 15.1059 0.465385 11.0635 4.18846 8.03176C7.91154 5 9.30769 5 9.30769 5V117.68L6.98077 125.26C6.98077 125.26 4.63378 125.027 2.79231 122.228C0.950832 119.429 0.930769 117.68 0.930769 117.68L0 15.1059Z" fill="#F4414C"/>
<path d="M197.323 14.8945C197.323 14.8945 196.811 10.9367 192.716 7.96833C188.621 5 187.085 5 187.085 5V117.175L190.156 123.239C190.156 123.239 191.692 123.239 194.252 119.776C196.811 116.313 196.299 115.323 196.299 115.323L197.323 14.8945Z" fill="#F4414C"/>
<path d="M187.083 117.176L190.155 123.239L187.084 123.239L187.083 117.176Z" fill="#F4414C"/>
<path d="M9.30793 117.68L6.98071 125.26L9.30682 125.26L9.30793 117.68Z" fill="#F4414C"/>
<ellipse cx="75.8576" cy="69.0345" rx="40.4885" ry="39.5577" fill="#D9D9D9"/>
<ellipse cx="75.1765" cy="69.1865" rx="31.0998" ry="30.25" fill="#2D2D2D"/>
<ellipse cx="75.6115" cy="68.7059" rx="17.6037" ry="16.8702" fill="black"/>
<path d="M187.084 5.00049C187.084 5.00049 187.892 5.00582 188.946 5.46542C191.912 6.75925 195.461 9.18895 196.392 11.0505C197.323 12.912 197.323 14.2674 197.323 14.2674V24.5466H187.084V5.00049Z" fill="#D9D9D9"/>
<path d="M9.30762 5C9.30762 5 8.5731 5.00533 7.61531 5.46493C4.919 6.75876 1.69223 9.18846 0.846079 11.05C-7.53403e-05 12.9115 -7.53403e-05 14.2669 -7.53403e-05 14.2669V24.5462H9.30762V5Z" fill="#D9D9D9"/>
<rect x="9.30762" y="5" width="177.777" height="19.5462" fill="#D9D9D9"/>
<rect x="83.769" y="6.86157" width="93.0769" height="15.8231" fill="#2D2D2D"/>
<path d="M11.1692 114.831L189.877 113.9V123.58L11.1692 126V114.831Z" fill="#2D2D2D"/>
<path d="M176.846 6.86157C176.846 6.86157 177.654 6.86589 178.708 7.23794C181.674 8.28533 185.223 10.2522 186.154 11.7592C187.085 13.2662 187.085 14.3634 187.085 14.3634V22.6846H176.846V6.86157Z" fill="#2D2D2D"/>
<path d="M196.391 113.9C196.391 113.9 196.393 116.227 195.927 117.623C194.733 121.203 194.028 121.502 192.521 122.639C191.014 123.777 189.917 123.777 189.917 123.777H181.595V113.9H196.391Z" fill="#2D2D2D"/>
<path d="M0.953672 114.831C0.953672 114.831 0.506662 116.942 0.930612 119.485C1.39613 122.277 2.4244 123.208 3.74058 124.325C5.05677 125.442 6.99232 126 6.99232 126H13.0313L13.0313 114.831H0.953672Z" fill="#2D2D2D"/>
<path d="M83.769 6.86157C83.769 6.86157 83.3283 6.86589 82.7537 7.23794C81.1359 8.28533 79.1998 10.2522 78.6921 11.7592C78.1844 13.2662 78.1844 14.3634 78.1844 14.3634V22.6846H83.769V6.86157Z" fill="#2D2D2D"/>
<rect x="156.369" y="9.65381" width="20.4769" height="10.0004" rx="3" fill="#CDCDCD"/>
<rect x="158.274" y="10.1301" width="16.6673" height="9.04794" rx="2" fill="#FEFEFE"/>
<path d="M159.227 10.1301C158.438 10.1301 157.798 10.7697 157.798 11.5587V17.7494C157.798 18.5385 158.438 19.1781 159.227 19.1781V10.1301Z" fill="#2D2D2D"/>
<path d="M173.989 10.1301C174.778 10.1301 175.417 10.7697 175.417 11.5587V17.7494C175.417 18.5385 174.778 19.1781 173.989 19.1781V10.1301Z" fill="#2D2D2D"/>
<g filter="url(#filter0_f_144_2724)">
<rect x="159.703" y="10.6062" width="13.81" height="8.09553" rx="3" fill="#CDCDCD"/>
</g>
<g filter="url(#filter1_d_144_2724)">
<rect x="161.607" y="11.5588" width="10.0004" height="5.71449" rx="2.85725" fill="#B1B1B1"/>
</g>
<path d="M85.6309 6.86157H113.107L109.937 9.12201H88.4203L85.6309 6.86157Z" fill="#808080"/>
<path d="M85.6309 22.6846H113.107L109.937 20.4241H88.4489L85.6309 22.6846Z" fill="#808080"/>
<path d="M110.004 20.2012L113.158 22.6048" stroke="black" stroke-width="0.1"/>
<path d="M88.4565 20.2012L85.6306 22.6222" stroke="black" stroke-width="0.1"/>
<path d="M109.81 9.29589L113.107 6.86157V22.6846L109.81 20.2503V9.29589Z" fill="#808080"/>
<g filter="url(#filter2_d_144_2724)">
<path d="M88.9277 9.29589L85.6306 6.86157V22.6846L88.9277 20.2503V9.29589Z" fill="#808080"/>
</g>
<g filter="url(#filter3_d_144_2724)">
<path d="M88.4563 9.30636L85.6305 6.88515" stroke="black" stroke-width="0.1"/>
</g>
<path d="M88.9277 9.12183H109.81V20.424H88.9277V9.12183Z" fill="#2D2D2D"/>
<g filter="url(#filter4_d_144_2724)">
<path d="M110.004 9.30652L113.161 6.86182" stroke="black" stroke-width="0.1"/>
</g>
<g filter="url(#filter5_f_144_2724)">
<line x1="188.266" y1="5" x2="188.266" y2="123.208" stroke="#2D2D2D" stroke-width="0.5"/>
</g>
<g filter="url(#filter6_f_144_2724)">
<line x1="11.4192" y1="5.93066" x2="11.4192" y2="124.138" stroke="#2D2D2D" stroke-width="0.5"/>
</g>
<g filter="url(#filter7_d_144_2724)">
<line x1="11.4192" y1="28.2693" x2="11.4192" y2="111.108" stroke="#FEFEFE" stroke-opacity="0.5" stroke-width="0.5" shape-rendering="crispEdges"/>
</g>
<path d="M14.16 19L15.976 13.24H17.388L19.204 19H18.212L16.564 13.832H16.78L15.152 19H14.16ZM15.172 17.752V16.852H18.196V17.752H15.172ZM22.1469 19.12C21.7736 19.12 21.4229 19.0547 21.0949 18.924C20.7696 18.7907 20.4829 18.596 20.2349 18.34C19.9896 18.084 19.7976 17.7707 19.6589 17.4C19.5203 17.0267 19.4509 16.6 19.4509 16.12C19.4509 15.4907 19.5683 14.9533 19.8029 14.508C20.0376 14.06 20.3589 13.7173 20.7669 13.48C21.1749 13.24 21.6349 13.12 22.1469 13.12C22.8563 13.12 23.4176 13.2853 23.8309 13.616C24.2469 13.944 24.5283 14.4053 24.6749 15L23.6909 15.156C23.5816 14.8147 23.4029 14.5427 23.1549 14.34C22.9069 14.1347 22.5909 14.032 22.2069 14.032C21.8203 14.0267 21.4989 14.1107 21.2429 14.284C20.9869 14.4573 20.7936 14.7013 20.6629 15.016C20.5349 15.3307 20.4709 15.6987 20.4709 16.12C20.4709 16.5413 20.5349 16.908 20.6629 17.22C20.7909 17.5293 20.9829 17.7707 21.2389 17.944C21.4976 18.1173 21.8203 18.2067 22.2069 18.212C22.4976 18.2147 22.7523 18.1627 22.9709 18.056C23.1896 17.9467 23.3683 17.7827 23.5069 17.564C23.6456 17.3427 23.7389 17.0667 23.7869 16.736H22.7709V15.98H24.8109C24.8163 16.0227 24.8203 16.0853 24.8229 16.168C24.8256 16.2507 24.8269 16.3 24.8269 16.316C24.8269 16.86 24.7189 17.344 24.5029 17.768C24.2896 18.1893 23.9829 18.52 23.5829 18.76C23.1829 19 22.7043 19.12 22.1469 19.12ZM25.6303 19V13.24H29.0983V14.204H26.5943V15.64H28.6183V16.6H26.5943V19H25.6303ZM29.3397 19L31.1557 13.24H32.5677L34.3837 19H33.3917L31.7437 13.832H31.9597L30.3317 19H29.3397ZM30.3517 17.752V16.852H33.3757V17.752H30.3517Z" fill="#2D2D2D"/>
<path d="M36.5964 19V13.248H41.2364C41.4391 13.248 41.6258 13.2987 41.7964 13.4C41.9671 13.5013 42.1031 13.6373 42.2044 13.808C42.3058 13.9733 42.3564 14.1573 42.3564 14.36V15.912C42.3564 16.1147 42.3058 16.3013 42.2044 16.472C42.1031 16.6427 41.9671 16.7787 41.7964 16.88C41.6258 16.976 41.4391 17.024 41.2364 17.024L37.6524 17.032V19H36.5964ZM37.7484 15.96H41.1884C41.2151 15.96 41.2391 15.952 41.2604 15.936C41.2818 15.92 41.2924 15.8987 41.2924 15.872V14.4C41.2924 14.3733 41.2818 14.352 41.2604 14.336C41.2391 14.3147 41.2151 14.304 41.1884 14.304H37.7484C37.7218 14.304 37.6978 14.3147 37.6764 14.336C37.6604 14.352 37.6524 14.3733 37.6524 14.4V15.872C37.6524 15.8987 37.6604 15.92 37.6764 15.936C37.6978 15.952 37.7218 15.96 37.7484 15.96ZM42.9326 19V13.24H43.9886V15.584H47.7646V13.24H48.8206V19H47.7646V16.656H43.9886V19H42.9326ZM50.8253 19C50.6226 19 50.4359 18.9493 50.2653 18.848C50.0999 18.7467 49.9666 18.6133 49.8653 18.448C49.7639 18.2773 49.7133 18.0907 49.7133 17.888V14.352C49.7133 14.1493 49.7639 13.9653 49.8653 13.8C49.9666 13.6293 50.0999 13.4933 50.2653 13.392C50.4359 13.2907 50.6226 13.24 50.8253 13.24H54.3613C54.5639 13.24 54.7479 13.2907 54.9133 13.392C55.0839 13.4933 55.2199 13.6293 55.3213 13.8C55.4226 13.9653 55.4733 14.1493 55.4733 14.352V17.888C55.4733 18.0907 55.4226 18.2773 55.3213 18.448C55.2199 18.6133 55.0839 18.7467 54.9133 18.848C54.7479 18.9493 54.5639 19 54.3613 19H50.8253ZM50.8653 17.936H54.3053C54.3319 17.936 54.3559 17.928 54.3773 17.912C54.3986 17.8907 54.4093 17.8667 54.4093 17.84V14.4C54.4093 14.3733 54.3986 14.352 54.3773 14.336C54.3559 14.3147 54.3319 14.304 54.3053 14.304H50.8653C50.8386 14.304 50.8146 14.3147 50.7933 14.336C50.7773 14.352 50.7693 14.3733 50.7693 14.4V17.84C50.7693 17.8667 50.7773 17.8907 50.7933 17.912C50.8146 17.928 50.8386 17.936 50.8653 17.936ZM58.4183 19V14.304H56.0663V13.24H61.8263V14.304H59.4823V19H58.4183ZM63.5206 19C63.3179 19 63.1312 18.9493 62.9606 18.848C62.7952 18.7467 62.6619 18.6133 62.5606 18.448C62.4592 18.2773 62.4086 18.0907 62.4086 17.888V14.352C62.4086 14.1493 62.4592 13.9653 62.5606 13.8C62.6619 13.6293 62.7952 13.4933 62.9606 13.392C63.1312 13.2907 63.3179 13.24 63.5206 13.24H67.0566C67.2592 13.24 67.4432 13.2907 67.6086 13.392C67.7792 13.4933 67.9152 13.6293 68.0166 13.8C68.1179 13.9653 68.1686 14.1493 68.1686 14.352V17.888C68.1686 18.0907 68.1179 18.2773 68.0166 18.448C67.9152 18.6133 67.7792 18.7467 67.6086 18.848C67.4432 18.9493 67.2592 19 67.0566 19H63.5206ZM63.5606 17.936H67.0006C67.0272 17.936 67.0512 17.928 67.0726 17.912C67.0939 17.8907 67.1046 17.8667 67.1046 17.84V14.4C67.1046 14.3733 67.0939 14.352 67.0726 14.336C67.0512 14.3147 67.0272 14.304 67.0006 14.304H63.5606C63.5339 14.304 63.5099 14.3147 63.4886 14.336C63.4726 14.352 63.4646 14.3733 63.4646 14.4V17.84C63.4646 17.8667 63.4726 17.8907 63.4886 17.912C63.5099 17.928 63.5339 17.936 63.5606 17.936Z" fill="#FEFEFE"/>
<rect x="141.477" y="40.3691" width="35.3692" height="14.8923" rx="7.44615" fill="#D9D9D9"/>
<rect x="143.338" y="42.2307" width="31.6462" height="11.1692" rx="5.58462" fill="#2D2D2D"/>
<g filter="url(#filter8_d_144_2724)">
<line x1="188.266" y1="28.2693" x2="188.266" y2="111.108" stroke="#FEFEFE" stroke-opacity="0.5" stroke-width="0.5" shape-rendering="crispEdges"/>
</g>
<defs>
<filter id="filter0_f_144_2724" x="157.703" y="8.6062" width="17.8101" height="12.0956" filterUnits="userSpaceOnUse" color-interpolation-filters="sRGB">
<feFlood flood-opacity="0" result="BackgroundImageFix"/>
<feBlend mode="normal" in="SourceGraphic" in2="BackgroundImageFix" result="shape"/>
<feGaussianBlur stdDeviation="1" result="effect1_foregroundBlur_144_2724"/>
</filter>
<filter id="filter1_d_144_2724" x="151.607" y="5.55884" width="30.0005" height="25.7145" filterUnits="userSpaceOnUse" color-interpolation-filters="sRGB">
<feFlood flood-opacity="0" result="BackgroundImageFix"/>
<feColorMatrix in="SourceAlpha" type="matrix" values="0 0 0 0 0 0 0 0 0 0 0 0 0 0 0 0 0 0 127 0" result="hardAlpha"/>
<feOffset dy="4"/>
<feGaussianBlur stdDeviation="5"/>
<feComposite in2="hardAlpha" operator="out"/>
<feColorMatrix type="matrix" values="0 0 0 0 0 0 0 0 0 0 0 0 0 0 0 0 0 0 0.25 0"/>
<feBlend mode="normal" in2="BackgroundImageFix" result="effect1_dropShadow_144_2724"/>
<feBlend mode="normal" in="SourceGraphic" in2="effect1_dropShadow_144_2724" result="shape"/>
</filter>
<filter id="filter2_d_144_2724" x="81.6304" y="6.86157" width="11.2974" height="23.8231" filterUnits="userSpaceOnUse" color-interpolation-filters="sRGB">
<feFlood flood-opacity="0" result="BackgroundImageFix"/>
<feColorMatrix in="SourceAlpha" type="matrix" values="0 0 0 0 0 0 0 0 0 0 0 0 0 0 0 0 0 0 127 0" result="hardAlpha"/>
<feOffset dy="4"/>
<feGaussianBlur stdDeviation="2"/>
<feComposite in2="hardAlpha" operator="out"/>
<feColorMatrix type="matrix" values="0 0 0 0 0 0 0 0 0 0 0 0 0 0 0 0 0 0 0.25 0"/>
<feBlend mode="normal" in2="BackgroundImageFix" result="effect1_dropShadow_144_2724"/>
<feBlend mode="normal" in="SourceGraphic" in2="effect1_dropShadow_144_2724" result="shape"/>
</filter>
<filter id="filter3_d_144_2724" x="81.5923" y="6.85266" width="10.9019" height="10.4862" filterUnits="userSpaceOnUse" color-interpolation-filters="sRGB">
<feFlood flood-opacity="0" result="BackgroundImageFix"/>
<feColorMatrix in="SourceAlpha" type="matrix" values="0 0 0 0 0 0 0 0 0 0 0 0 0 0 0 0 0 0 127 0" result="hardAlpha"/>
<feOffset dy="4"/>
<feGaussianBlur stdDeviation="2"/>
<feComposite in2="hardAlpha" operator="out"/>
<feColorMatrix type="matrix" values="0 0 0 0 0 0 0 0 0 0 0 0 0 0 0 0 0 0 0.25 0"/>
<feBlend mode="normal" in2="BackgroundImageFix" result="effect1_dropShadow_144_2724"/>
<feBlend mode="normal" in="SourceGraphic" in2="effect1_dropShadow_144_2724" result="shape"/>
</filter>
<filter id="filter4_d_144_2724" x="105.967" y="6.82703" width="11.23" height="10.5143" filterUnits="userSpaceOnUse" color-interpolation-filters="sRGB">
<feFlood flood-opacity="0" result="BackgroundImageFix"/>
<feColorMatrix in="SourceAlpha" type="matrix" values="0 0 0 0 0 0 0 0 0 0 0 0 0 0 0 0 0 0 127 0" result="hardAlpha"/>
<feOffset dy="4"/>
<feGaussianBlur stdDeviation="2"/>
<feComposite in2="hardAlpha" operator="out"/>
<feColorMatrix type="matrix" values="0 0 0 0 0 0 0 0 0 0 0 0 0 0 0 0 0 0 0.25 0"/>
<feBlend mode="normal" in2="BackgroundImageFix" result="effect1_dropShadow_144_2724"/>
<feBlend mode="normal" in="SourceGraphic" in2="effect1_dropShadow_144_2724" result="shape"/>
</filter>
<filter id="filter5_f_144_2724" x="183.016" y="0" width="10.5" height="128.208" filterUnits="userSpaceOnUse" color-interpolation-filters="sRGB">
<feFlood flood-opacity="0" result="BackgroundImageFix"/>
<feBlend mode="normal" in="SourceGraphic" in2="BackgroundImageFix" result="shape"/>
<feGaussianBlur stdDeviation="2.5" result="effect1_foregroundBlur_144_2724"/>
</filter>
<filter id="filter6_f_144_2724" x="6.16919" y="0.930664" width="10.5" height="128.208" filterUnits="userSpaceOnUse" color-interpolation-filters="sRGB">
<feFlood flood-opacity="0" result="BackgroundImageFix"/>
<feBlend mode="normal" in="SourceGraphic" in2="BackgroundImageFix" result="shape"/>
<feGaussianBlur stdDeviation="2.5" result="effect1_foregroundBlur_144_2724"/>
</filter>
<filter id="filter7_d_144_2724" x="7.16919" y="28.2693" width="8.5" height="90.8385" filterUnits="userSpaceOnUse" color-interpolation-filters="sRGB">
<feFlood flood-opacity="0" result="BackgroundImageFix"/>
<feColorMatrix in="SourceAlpha" type="matrix" values="0 0 0 0 0 0 0 0 0 0 0 0 0 0 0 0 0 0 127 0" result="hardAlpha"/>
<feOffset dy="4"/>
<feGaussianBlur stdDeviation="2"/>
<feComposite in2="hardAlpha" operator="out"/>
<feColorMatrix type="matrix" values="0 0 0 0 0 0 0 0 0 0 0 0 0 0 0 0 0 0 0.25 0"/>
<feBlend mode="normal" in2="BackgroundImageFix" result="effect1_dropShadow_144_2724"/>
<feBlend mode="normal" in="SourceGraphic" in2="effect1_dropShadow_144_2724" result="shape"/>
</filter>
<filter id="filter8_d_144_2724" x="184.016" y="28.2693" width="8.5" height="90.8385" filterUnits="userSpaceOnUse" color-interpolation-filters="sRGB">
<feFlood flood-opacity="0" result="BackgroundImageFix"/>
<feColorMatrix in="SourceAlpha" type="matrix" values="0 0 0 0 0 0 0 0 0 0 0 0 0 0 0 0 0 0 127 0" result="hardAlpha"/>
<feOffset dy="4"/>
<feGaussianBlur stdDeviation="2"/>
<feComposite in2="hardAlpha" operator="out"/>
<feColorMatrix type="matrix" values="0 0 0 0 0 0 0 0 0 0 0 0 0 0 0 0 0 0 0.25 0"/>
<feBlend mode="normal" in2="BackgroundImageFix" result="effect1_dropShadow_144_2724"/>
<feBlend mode="normal" in="SourceGraphic" in2="effect1_dropShadow_144_2724" result="shape"/>
</filter>
</defs>
</svg>
