<svg width="502" height="1285" viewBox="0 0 502 1285" fill="none" xmlns="http://www.w3.org/2000/svg">
<path d="M52.8561 56.3621C51.4631 50.4024 55.9865 44.7 62.1068 44.7H447.883C448.131 44.7 448.361 44.8304 448.488 45.0435C457.234 59.687 450.51 78.6745 434.497 84.5491L382.465 103.638C381.665 103.931 380.99 104.492 380.556 105.225L380.986 105.48L380.555 105.225L299.1 242.591C297.863 244.676 295.197 245.407 293.07 244.244L112.913 145.727C84.3356 130.1 63.7662 103.042 56.3534 71.3256L52.8561 56.3621Z" fill="#E7C994" stroke="#E7C994"/>
<rect x="65.6387" y="17.5" width="356.927" height="27.3333" fill="#E7C994" stroke="#E7C994"/>
<g filter="url(#filter0_f_144_2721)">
<rect x="16" y="713" width="476" height="562" fill="#E7C994"/>
<rect x="16.5" y="713.5" width="475" height="561" stroke="#E7C994"/>
</g>
<path d="M52.5 0.5H449.522L451.977 55.0026L52.5 56.9975V0.5Z" fill="#E7C994" stroke="#E7C994"/>
<path d="M202.074 233.474C215.846 262.118 48.0666 325.383 48.0667 411C48.0669 500 189.067 558.5 260.567 392.5C332.067 226.5 487.567 491 277.067 609.5" stroke="#E7C994" stroke-width="50" stroke-linecap="round"/>
<path d="M68.3369 634.922C87.5566 622.691 111.473 619.62 141.817 615.723C143.213 615.543 144.623 615.362 146.047 615.179C178.377 611.005 217.691 605.433 265.748 586.967C291.103 577.224 309.987 572.608 322.898 571.754C329.357 571.327 334.283 571.845 337.768 573.105C341.241 574.361 343.239 576.335 343.963 578.82C344.695 581.33 344.164 584.484 342.3 588.165C340.439 591.838 337.278 595.977 332.855 600.412C324.01 609.281 310.18 619.277 291.833 629.059C273.439 638.866 259.184 648.41 250.106 656.391C245.57 660.378 242.301 663.997 240.46 667.084C238.637 670.143 238.122 672.849 239.466 674.849C240.784 676.812 243.739 677.838 248.161 677.979C252.624 678.122 258.751 677.369 266.656 675.577C282.471 671.99 305.502 664.215 336.764 650.96C386.827 629.734 422.331 637.32 446.908 653.916C471.521 670.537 485.251 696.246 491.623 711.383C494.034 717.108 489.712 723 483.412 723H86.5002L86.5002 723.135C86.5002 723 86.5002 723 86.5001 723H86.4997H86.4976L86.4888 723L86.4531 723L86.3073 722.999C86.1766 722.999 85.9788 722.997 85.7106 722.994C85.1742 722.989 84.3566 722.977 83.2335 722.954C80.9874 722.908 77.5197 722.816 72.6367 722.632C62.8707 722.263 47.4439 721.526 24.8073 720.052C20.2329 719.754 16.6079 716.239 17.0197 711.797C18.7551 693.082 31.0936 658.622 68.3369 634.922Z" fill="#E7C994" stroke="#E7C994"/>
<path d="M153.905 6.38533C153.973 3.44441 156.827 1.52681 159.697 2.4103L405.037 77.9356C408.627 79.0409 409.479 83.958 406.507 86.3307C399.818 91.6707 390.046 100.126 380.963 110.441C371.885 120.752 363.466 132.953 359.523 145.786C355.574 158.64 356.114 172.139 364.973 184.967C373.816 197.771 390.903 209.841 419.902 219.972C454.226 231.963 474.894 244.917 484.579 256.456C489.417 262.222 491.475 267.585 491.194 272.269C490.914 276.936 488.306 281.037 483.577 284.28C474.084 290.79 456.17 293.739 432.301 290.658C408.461 287.58 378.768 278.496 345.801 261.058C327.487 251.371 299.332 246.69 270.157 250.268C240.974 253.847 210.709 265.699 188.206 289.154C185.672 291.795 183.379 293.125 181.315 293.398C179.279 293.667 177.367 292.92 175.546 291.177C173.714 289.423 172.001 286.682 170.411 283.048C168.824 279.42 167.374 274.933 166.05 269.717C160.754 248.84 157.545 216.478 155.654 181.293C151.872 110.94 153.365 29.4545 153.905 6.38533Z" fill="#E7C994" stroke="#E7C994"/>
<rect x="182.142" y="256.442" width="5" height="23" transform="rotate(48.7723 182.142 256.442)" fill="#2D2D2D" stroke="#E7C994"/>
<rect x="312.838" y="210.143" width="5" height="23" transform="rotate(-56.1303 312.838 210.143)" fill="#2D2D2D" stroke="#E7C994"/>
<rect x="350.192" y="235.008" width="5" height="23" transform="rotate(-66.8249 350.192 235.008)" fill="#2D2D2D" stroke="#E7C994"/>
<rect x="391.751" y="253.385" width="5" height="23" transform="rotate(-73.2255 391.751 253.385)" fill="#2D2D2D" stroke="#E7C994"/>
<rect x="435.224" y="266.59" width="5" height="23" transform="rotate(-73.2255 435.224 266.59)" fill="#2D2D2D" stroke="#E7C994"/>
<rect x="144.477" y="284.701" width="5" height="23" transform="rotate(52.3434 144.477 284.701)" fill="#2D2D2D" stroke="#E7C994"/>
<rect x="107.561" y="311.707" width="5" height="23" transform="rotate(45.0812 107.561 311.707)" fill="#2D2D2D" stroke="#E7C994"/>
<rect x="76.3608" y="344.878" width="5" height="23" transform="rotate(40.4066 76.3608 344.878)" fill="#2D2D2D" stroke="#E7C994"/>
<rect x="53.3883" y="382.595" width="5" height="23" transform="rotate(16.7162 53.3883 382.595)" fill="#2D2D2D" stroke="#E7C994"/>
<rect x="47.2621" y="443.524" width="5" height="23" transform="rotate(-34.4576 47.2621 443.524)" fill="#2D2D2D" stroke="#E7C994"/>
<rect x="73.2218" y="477.579" width="5" height="23" transform="rotate(-58.6392 73.2218 477.579)" fill="#2D2D2D" stroke="#E7C994"/>
<rect x="122.289" y="497.955" width="5" height="23" transform="rotate(-86.2382 122.289 497.955)" fill="#2D2D2D" stroke="#E7C994"/>
<rect x="190.889" y="477.87" width="5" height="23" transform="rotate(57.5125 190.889 477.87)" fill="#2D2D2D" stroke="#E7C994"/>
<rect x="223.181" y="448.041" width="5" height="23" transform="rotate(41.344 223.181 448.041)" fill="#2D2D2D" stroke="#E7C994"/>
<rect x="244.314" y="412.012" width="5" height="23" transform="rotate(27.9897 244.314 412.012)" fill="#2D2D2D" stroke="#E7C994"/>
<rect x="263.879" y="379.114" width="5" height="23" transform="rotate(33.4609 263.879 379.114)" fill="#2D2D2D" stroke="#E7C994"/>
<rect x="289.696" y="345.853" width="5" height="23" transform="rotate(42.8517 289.696 345.853)" fill="#2D2D2D" stroke="#E7C994"/>
<rect x="329.016" y="335.543" width="5" height="23" transform="rotate(84.8098 329.016 335.543)" fill="#2D2D2D" stroke="#E7C994"/>
<rect x="360.904" y="358.804" width="5" height="23" transform="rotate(131.032 360.904 358.804)" fill="#2D2D2D" stroke="#E7C994"/>
<rect x="376.013" y="400.424" width="5" height="23" transform="rotate(161.062 376.013 400.424)" fill="#2D2D2D" stroke="#E7C994"/>
<rect x="381.536" y="442.485" width="5" height="23" transform="rotate(176.389 381.536 442.485)" fill="#2D2D2D" stroke="#E7C994"/>
<rect x="375.679" y="489.1" width="5" height="23" transform="rotate(-165.566 375.679 489.1)" fill="#2D2D2D" stroke="#E7C994"/>
<rect x="361.393" y="529.73" width="5" height="23" transform="rotate(-152.615 361.393 529.73)" fill="#2D2D2D" stroke="#E7C994"/>
<rect x="337.566" y="563.6" width="5" height="23" transform="rotate(-141.599 337.566 563.6)" fill="#2D2D2D" stroke="#E7C994"/>
<rect x="307.16" y="590.568" width="5" height="23" transform="rotate(-129.944 307.16 590.568)" fill="#2D2D2D" stroke="#E7C994"/>
<rect x="269.887" y="612.812" width="5" height="23" transform="rotate(-119.298 269.887 612.812)" fill="#2D2D2D" stroke="#E7C994"/>
<rect x="232.694" y="629.296" width="5" height="23" transform="rotate(-119.298 232.694 629.296)" fill="#2D2D2D" stroke="#E7C994"/>
<rect x="195.402" y="652.029" width="5" height="23" transform="rotate(-124.259 195.402 652.029)" fill="#2D2D2D" stroke="#E7C994"/>
<defs>
<filter id="filter0_f_144_2721" x="6" y="703" width="496" height="582" filterUnits="userSpaceOnUse" color-interpolation-filters="sRGB">
<feFlood flood-opacity="0" result="BackgroundImageFix"/>
<feBlend mode="normal" in="SourceGraphic" in2="BackgroundImageFix" result="shape"/>
<feGaussianBlur stdDeviation="5" result="effect1_foregroundBlur_144_2721"/>
</filter>
</defs>
</svg>
