<svg width="63" height="53" viewBox="0 0 63 53" fill="none" xmlns="http://www.w3.org/2000/svg">
<g filter="url(#filter0_d_144_2732)">
<rect x="4.00024" y="5.11377" width="55" height="39.8864" rx="5" fill="#FEFEFE"/>
<path d="M8.40049 5C8.40049 2.45949 10.46 0.4 13.0005 0.4H16.0005C18.541 0.4 20.6005 2.45949 20.6005 5V5.6H8.40049V5Z" fill="#D9D9D9" stroke="#2D2D2D" stroke-width="0.8"/>
<ellipse cx="31.9824" cy="25.5684" rx="10.614" ry="11.25" fill="#FEFEFE"/>
<ellipse cx="31.9826" cy="25.5682" rx="13.5088" ry="14.3182" fill="#2D2D2D"/>
<path d="M40.4165 25.5683C40.4165 30.5277 36.6269 34.5229 31.9823 34.5229C27.3377 34.5229 23.5481 30.5277 23.5481 25.5683C23.5481 20.609 27.3377 16.6138 31.9823 16.6138C36.6269 16.6138 40.4165 20.609 40.4165 25.5683Z" fill="#FEFEFE" stroke="#2D2D2D" stroke-width="0.5"/>
<rect x="5.92993" y="17.3862" width="15.4386" height="16.3636" fill="#2D2D2D"/>
<rect x="6.89478" y="41.9316" width="49.2105" height="3.06818" fill="#2D2D2D"/>
<rect x="6.89478" y="5.11377" width="49.2105" height="3.06818" fill="#2D2D2D"/>
<rect x="42.5969" y="17.3862" width="15.4386" height="16.3636" fill="#2D2D2D"/>
<path d="M57.0707 24.0343L59.0005 23.5229V27.6139V42.4434C59.0005 42.4434 58.5318 43.4858 58.0356 43.9775C57.42 44.5874 56.1057 45.0002 56.1057 45.0002L55.6233 42.4434L57.0707 40.9093V24.0343Z" fill="#2D2D2D"/>
<path d="M56.795 27.0781L59.0005 27.6138V23.3281V7.79234C59.0005 7.79234 58.4649 6.70031 57.8978 6.1852C57.1943 5.54628 55.6922 5.11377 55.6922 5.11377L55.1409 7.79234L56.795 9.39948V27.0781Z" fill="#2D2D2D"/>
<path d="M6.20548 24.0343L3.99997 23.5229V27.6139V42.4434C3.99997 42.4434 4.53557 43.4858 5.10273 43.9775C5.8062 44.5874 7.30824 45.0002 7.30824 45.0002L7.85962 42.4434L6.20548 40.9093V24.0343Z" fill="#2D2D2D"/>
<path d="M6.20548 27.0781L3.99997 27.6138V23.3281V7.79234C3.99997 7.79234 4.53557 6.70031 5.10273 6.1852C5.8062 5.54628 7.30824 5.11377 7.30824 5.11377L7.85962 7.79234L6.20548 9.39948V27.0781Z" fill="#2D2D2D"/>
<path d="M55.8551 11.7614C55.8551 13.0493 54.8735 14.0682 53.6928 14.0682C52.5121 14.0682 51.5305 13.0493 51.5305 11.7614C51.5305 10.4735 52.5121 9.45459 53.6928 9.45459C54.8735 9.45459 55.8551 10.4735 55.8551 11.7614Z" fill="#D9D9D9" stroke="#2D2D2D" stroke-width="0.5"/>
<path d="M55.8551 38.3522C55.8551 39.6402 54.8735 40.659 53.6928 40.659C52.5121 40.659 51.5305 39.6402 51.5305 38.3522C51.5305 37.0643 52.5121 36.0454 53.6928 36.0454C54.8735 36.0454 55.8551 37.0643 55.8551 38.3522Z" fill="#D9D9D9" stroke="#2D2D2D" stroke-width="0.5"/>
<path d="M12.4342 38.3522C12.4342 39.6402 11.4526 40.659 10.2719 40.659C9.09121 40.659 8.10962 39.6402 8.10962 38.3522C8.10962 37.0643 9.09121 36.0454 10.2719 36.0454C11.4526 36.0454 12.4342 37.0643 12.4342 38.3522Z" fill="#D9D9D9" stroke="#2D2D2D" stroke-width="0.5"/>
<path d="M12.4342 11.7614C12.4342 13.0493 11.4526 14.0682 10.2719 14.0682C9.09121 14.0682 8.10962 13.0493 8.10962 11.7614C8.10962 10.4735 9.09121 9.45459 10.2719 9.45459C11.4526 9.45459 12.4342 10.4735 12.4342 11.7614Z" fill="#D9D9D9" stroke="#2D2D2D" stroke-width="0.5"/>
<path d="M35.5926 25.568C35.5926 27.7031 33.963 29.4089 31.9829 29.4089C30.0029 29.4089 28.3733 27.7031 28.3733 25.568C28.3733 23.4328 30.0029 21.7271 31.9829 21.7271C33.963 21.7271 35.5926 23.4328 35.5926 25.568Z" fill="#D9D9D9" stroke="#2D2D2D" stroke-width="0.5"/>
</g>
<defs>
<filter id="filter0_d_144_2732" x="0" y="0" width="63.0005" height="53.0002" filterUnits="userSpaceOnUse" color-interpolation-filters="sRGB">
<feFlood flood-opacity="0" result="BackgroundImageFix"/>
<feColorMatrix in="SourceAlpha" type="matrix" values="0 0 0 0 0 0 0 0 0 0 0 0 0 0 0 0 0 0 127 0" result="hardAlpha"/>
<feOffset dy="4"/>
<feGaussianBlur stdDeviation="2"/>
<feComposite in2="hardAlpha" operator="out"/>
<feColorMatrix type="matrix" values="0 0 0 0 0 0 0 0 0 0 0 0 0 0 0 0 0 0 0.25 0"/>
<feBlend mode="normal" in2="BackgroundImageFix" result="effect1_dropShadow_144_2732"/>
<feBlend mode="normal" in="SourceGraphic" in2="effect1_dropShadow_144_2732" result="shape"/>
</filter>
</defs>
</svg>
