<svg width="65" height="63" viewBox="0 0 65 63" fill="none" xmlns="http://www.w3.org/2000/svg">
<path d="M64.5 31.2255C64.5 48.176 50.1922 61.951 32.5 61.951C14.8078 61.951 0.5 48.176 0.5 31.2255C0.5 14.2749 14.8078 0.5 32.5 0.5C50.1922 0.5 64.5 14.2749 64.5 31.2255Z" fill="#D9D9D9" stroke="#2D2D2D"/>
<path d="M18.4805 21.6666L30.9069 28.9951L29.9511 29.9509L18.4805 21.6666Z" fill="#2D2D2D" stroke="#2D2D2D" stroke-width="0.5"/>
<path d="M28.6765 36.0048L30.2697 30.9067L30.9069 31.544L28.6765 36.0048Z" fill="#2D2D2D" stroke="#2D2D2D" stroke-width="0.5"/>
<path d="M50.0245 25.4902L32.5 28.9951L33.1373 30.2696L50.0245 25.4902Z" fill="#2D2D2D" stroke="#2D2D2D" stroke-width="0.5"/>
<path d="M37.9168 14.0197L31.8629 28.6765L30.907 28.9951L37.9168 14.0197Z" fill="#2D2D2D" stroke="#2D2D2D" stroke-width="0.5"/>
<path d="M61.7009 31.1968C61.069 39.3485 58.4855 46.3256 53.6241 51.4185C48.7725 56.5011 41.5759 59.7873 31.5547 60.4244C22.9698 59.6326 15.992 56.4327 10.9653 51.406C5.93402 46.3748 2.81234 39.4683 2.02443 31.1903C2.03212 23.0932 4.68715 15.568 9.6759 10.0732C14.6627 4.58057 22.0238 1.06873 31.544 1.06873C39.7381 1.06873 47.2742 3.80091 52.755 8.91255C58.2222 14.0115 61.694 21.5238 61.7009 31.1968Z" stroke="#2D2D2D" stroke-width="1.5"/>
<path d="M51.0505 11.1716C54.9702 15.4406 57.336 21.6072 58.4464 30.3014C58.4282 44.9235 45.7748 56.1975 31.2613 56.2158C23.5492 55.1082 17.3 52.2737 12.9811 47.9137C8.66747 43.559 6.24126 37.6448 6.23561 30.2955C7.18505 21.1656 10.5346 14.4467 15.4243 10.0089C20.3114 5.5734 26.7826 3.37509 34.0572 3.36782C41.6177 4.47553 47.1381 6.91066 51.0505 11.1716Z" stroke="#2D2D2D"/>
<circle cx="31.5441" cy="30.2695" r="1.09314" fill="#2D2D2D" stroke="#2D2D2D"/>
<path d="M26.1275 33.1372L25.8088 30.2696L30.2696 29.9509V30.9068L26.1275 33.1372Z" fill="#2D2D2D" stroke="#2D2D2D" stroke-width="0.5"/>
<path d="M34.0932 33.1373C33.7745 32.8187 32.1814 31.5442 32.1814 31.5442L32.8187 30.2697C32.8187 30.2697 34.7304 31.8628 35.049 32.1814C35.3677 32.5 34.4118 33.4559 34.0932 33.1373Z" fill="#2D2D2D" stroke="#2D2D2D" stroke-width="0.5"/>
<line x1="43.1304" y1="11.0814" x2="40.5814" y2="15.5422" stroke="#2D2D2D"/>
<line x1="49.9425" y1="19.5506" x2="45.4954" y2="22.1234" stroke="#2D2D2D"/>
<line x1="50.58" y1="20.8249" x2="46.1329" y2="23.3977" stroke="#2D2D2D"/>
<line y1="-0.5" x2="5.13771" y2="-0.5" transform="matrix(-0.999998 0.00173453 -0.000333978 -1 52.9316 29.3137)" stroke="#2D2D2D"/>
<line y1="-0.5" x2="5.13771" y2="-0.5" transform="matrix(-0.861843 -0.507175 0.508381 -0.861132 50.9473 39.5663)" stroke="#2D2D2D"/>
<line y1="-0.5" x2="5.13771" y2="-0.5" transform="matrix(-0.00623232 -0.999981 0.999988 -0.00483181 29.9832 51.6571)" stroke="#2D2D2D"/>
<line y1="-0.5" x2="5.13771" y2="-0.5" transform="matrix(-0.999998 0.00173453 -0.000333978 -1 52.9316 31.9178)" stroke="#2D2D2D"/>
<path d="M50.343 40.7843L45.1678 39.1816" stroke="#2D2D2D"/>
<line x1="48.7155" y1="43.05" x2="44.8918" y2="39.2354" stroke="#2D2D2D"/>
<path d="M43.2441 48.3035L39.7266 44.183" stroke="#2D2D2D"/>
<line x1="40.6579" y1="49.3487" x2="39.4648" y2="44.0811" stroke="#2D2D2D"/>
<path d="M33.5151 51.9027L32.4188 46.5971" stroke="#2D2D2D"/>
<line x1="30.7451" y1="51.5719" x2="32.2383" y2="46.3813" stroke="#2D2D2D"/>
<path d="M37.5359 8.30371L36.0069 13.8845" stroke="#2D2D2D"/>
<line x1="35.546" y1="8.22909" x2="36.1833" y2="13.9644" stroke="#2D2D2D"/>
<line y1="-0.5" x2="5.13771" y2="-0.5" transform="matrix(0.639652 -0.768665 0.767768 0.640728 19.7546 47.9198)" stroke="#2D2D2D"/>
<line y1="-0.5" x2="5.13771" y2="-0.5" transform="matrix(0.639652 -0.768665 0.767768 0.640728 18.4805 46.6453)" stroke="#2D2D2D"/>
<path d="M22.2971 50.3837L24.8778 45.6202" stroke="#2D2D2D"/>
<line x1="20.3923" y1="48.3458" x2="24.8791" y2="45.339" stroke="#2D2D2D"/>
<path d="M13.3824 39.5098L18.1619 37.5981" stroke="#2D2D2D"/>
<path d="M10.1508 31.1523L15.6994 27.7872" stroke="#2D2D2D"/>
<path d="M10.2307 28.0392L15.9533 31.3" stroke="#2D2D2D"/>
<path d="M12.327 20.5335L18.7747 19.7998" stroke="#2D2D2D"/>
<path d="M13.7028 17.7396L17.5352 23.0962" stroke="#2D2D2D"/>
<path d="M19.1526 12.8917L24.7635 16.1519" stroke="#2D2D2D"/>
<path d="M21.9239 11.4712L21.8011 18.0565" stroke="#2D2D2D"/>
<path d="M28.0727 7.93588L31.6064 13.906" stroke="#2D2D2D"/>
<path d="M31.6752 8.332L27.8601 13.7368" stroke="#2D2D2D"/>
<line y1="-0.5" x2="5.13771" y2="-0.5" transform="matrix(0.929688 -0.368347 0.367045 0.930203 12.7454 38.2159)" stroke="#2D2D2D"/>
<line y1="-0.5" x2="5.13771" y2="-0.5" transform="matrix(0.929688 -0.368347 0.367045 0.930203 12.1079 36.9414)" stroke="#2D2D2D"/>
<line x1="10.1963" y1="32" x2="15.9316" y2="32" stroke="#2D2D2D"/>
<line x1="22.4148" y1="10.3155" x2="25.9085" y2="15.6578" stroke="#2D2D2D"/>
<path d="M14.3049 43.3258L18.8521 40.3805" stroke="#2D2D2D"/>
<line x1="13.6089" y1="40.6246" x2="18.9877" y2="40.1344" stroke="#2D2D2D"/>
<line y1="-0.5" x2="5.13771" y2="-0.5" transform="matrix(-0.999998 0.00173453 -0.000333978 -1 52.9316 30.5883)" stroke="#2D2D2D"/>
<line x1="33.8201" y1="14.0211" x2="33.8201" y2="8.39967" stroke="#2D2D2D"/>
<line x1="32.5457" y1="14.0211" x2="32.5457" y2="8.39967" stroke="#2D2D2D"/>
</svg>
