<svg width="58" height="58" viewBox="0 0 58 58" fill="none" xmlns="http://www.w3.org/2000/svg">
<g filter="url(#filter0_d_144_2731)">
<circle cx="29" cy="25" r="25" fill="#2D2D2D"/>
<path d="M10.05 31L10.05 20.2L13.4925 20.2C13.5825 20.2 13.76 20.2025 14.025 20.2075C14.295 20.2125 14.555 20.23 14.805 20.26C15.66 20.37 16.3825 20.675 16.9725 21.175C17.5675 21.67 18.0175 22.3025 18.3225 23.0725C18.6275 23.8425 18.78 24.685 18.78 25.6C18.78 26.515 18.6275 27.3575 18.3225 28.1275C18.0175 28.8975 17.5675 29.5325 16.9725 30.0325C16.3825 30.5275 15.66 30.83 14.805 30.94C14.56 30.97 14.3025 30.9875 14.0325 30.9925C13.7625 30.9975 13.5825 31 13.4925 31L10.05 31ZM11.8875 29.2975L13.4925 29.2975C13.6425 29.2975 13.8325 29.2925 14.0625 29.2825C14.2975 29.2725 14.505 29.25 14.685 29.215C15.195 29.12 15.61 28.8925 15.93 28.5325C16.25 28.1725 16.485 27.735 16.635 27.22C16.79 26.705 16.8675 26.165 16.8675 25.6C16.8675 25.015 16.79 24.465 16.635 23.95C16.48 23.435 16.24 23.0025 15.915 22.6525C15.595 22.3025 15.185 22.08 14.685 21.985C14.505 21.945 14.2975 21.9225 14.0625 21.9175C13.8325 21.9075 13.6425 21.9025 13.4925 21.9025L11.8875 21.9025L11.8875 29.2975ZM20.5529 31L20.5529 20.2L22.1804 20.2L25.9154 27.85L29.6504 20.2L31.2779 20.2L31.2779 31L29.5904 31L29.5904 24.0775L26.2754 31L25.5554 31L22.2479 24.0775L22.2479 31L20.5529 31ZM35.545 31.225C34.72 31.225 34.0325 31.01 33.4825 30.58C32.9375 30.15 32.555 29.57 32.335 28.84L34.12 28.4125C34.175 28.7175 34.335 28.98 34.6 29.2C34.865 29.42 35.1575 29.53 35.4775 29.53C35.6875 29.53 35.91 29.475 36.145 29.365C36.38 29.25 36.555 29.0675 36.67 28.8175C36.74 28.6575 36.78 28.4675 36.79 28.2475C36.805 28.0225 36.8125 27.7625 36.8125 27.4675L36.8125 20.2L38.6425 20.2L38.6425 27.4675C38.6425 27.8025 38.64 28.0975 38.635 28.3525C38.635 28.6025 38.61 28.84 38.56 29.065C38.515 29.285 38.4225 29.5125 38.2825 29.7475C37.9875 30.2575 37.6025 30.6325 37.1275 30.8725C36.6525 31.1075 36.125 31.225 35.545 31.225ZM39.9996 31L43.6596 25.54L40.1046 20.2L42.3171 20.2L44.7771 24.0025L47.2146 20.2L49.4421 20.2L45.8871 25.54L49.5321 31L47.3196 31L44.7771 27.0775L42.2271 31L39.9996 31Z" fill="#FEFEFE"/>
</g>
<defs>
<filter id="filter0_d_144_2731" x="0" y="0" width="58" height="58" filterUnits="userSpaceOnUse" color-interpolation-filters="sRGB">
<feFlood flood-opacity="0" result="BackgroundImageFix"/>
<feColorMatrix in="SourceAlpha" type="matrix" values="0 0 0 0 0 0 0 0 0 0 0 0 0 0 0 0 0 0 127 0" result="hardAlpha"/>
<feOffset dy="4"/>
<feGaussianBlur stdDeviation="2"/>
<feComposite in2="hardAlpha" operator="out"/>
<feColorMatrix type="matrix" values="0 0 0 0 0 0 0 0 0 0 0 0 0 0 0 0 0 0 0.25 0"/>
<feBlend mode="normal" in2="BackgroundImageFix" result="effect1_dropShadow_144_2731"/>
<feBlend mode="normal" in="SourceGraphic" in2="effect1_dropShadow_144_2731" result="shape"/>
</filter>
</defs>
</svg>
