<svg width="73" height="63" viewBox="0 0 73 63" fill="none" xmlns="http://www.w3.org/2000/svg">
<g filter="url(#filter0_d_144_2728)">
<path d="M29.6123 21.8496C30.1569 21.0574 30.0323 19.8674 29.3341 19.1916C28.636 18.5158 27.6285 18.6101 27.084 19.4023L29.6123 21.8496ZM7.26417 54.3615L29.6123 21.8496L27.084 19.4023L4.73583 51.9142L7.26417 54.3615Z" fill="#2D2D2D"/>
<path d="M28.4079 20.6522L41.325 37.6827" stroke="#2D2D2D" stroke-width="3.5" stroke-linecap="round"/>
<path d="M40.0972 36.4612C39.5688 37.2493 39.7292 38.4261 40.4555 39.0897C41.1818 39.7533 42.199 39.6524 42.7275 38.8643L40.0972 36.4612ZM66.29 2.79739C66.1501 1.77089 65.3174 1.01011 64.4302 1.09815L49.9717 2.53275C49.0844 2.62079 48.4786 3.5243 48.6185 4.5508C48.7585 5.5773 49.5911 6.33808 50.4784 6.25004L63.3304 4.97484L65.3572 19.844C65.4971 20.8705 66.3298 21.6313 67.217 21.5432C68.1043 21.4552 68.7101 20.5517 68.5702 19.5252L66.29 2.79739ZM42.7275 38.8643L65.9987 4.15834L63.3684 1.75525L40.0972 36.4612L42.7275 38.8643Z" fill="#2D2D2D"/>
</g>
<defs>
<filter id="filter0_d_144_2728" x="0.73584" y="0" width="71.8545" height="62.3615" filterUnits="userSpaceOnUse" color-interpolation-filters="sRGB">
<feFlood flood-opacity="0" result="BackgroundImageFix"/>
<feColorMatrix in="SourceAlpha" type="matrix" values="0 0 0 0 0 0 0 0 0 0 0 0 0 0 0 0 0 0 127 0" result="hardAlpha"/>
<feOffset dy="4"/>
<feGaussianBlur stdDeviation="2"/>
<feComposite in2="hardAlpha" operator="out"/>
<feColorMatrix type="matrix" values="0 0 0 0 0 0 0 0 0 0 0 0 0 0 0 0 0 0 0.25 0"/>
<feBlend mode="normal" in2="BackgroundImageFix" result="effect1_dropShadow_144_2728"/>
<feBlend mode="normal" in="SourceGraphic" in2="effect1_dropShadow_144_2728" result="shape"/>
</filter>
</defs>
</svg>
