<svg width="63" height="67" viewBox="0 0 63 67" fill="none" xmlns="http://www.w3.org/2000/svg">
<path d="M1.86177 25.2568L31.1979 0.65224L60.1556 24.8782L1.86177 25.2568Z" fill="#D9D9D9" stroke="#2D2D2D"/>
<rect x="5.13867" y="10.2119" width="52.1171" height="31.9009" rx="4.5" fill="#FEFEFE" stroke="#2D2D2D"/>
<path d="M51.2582 27.3928C53.2486 26.2962 55.8809 25.9042 58.061 25.797C59.1429 25.7438 60.0971 25.7614 60.7804 25.7923C61.0326 25.8037 61.2475 25.8169 61.4179 25.829V54.839L36.9335 39.9264C37.1863 39.6547 37.5479 39.2694 37.9973 38.7997C38.9214 37.8337 40.2154 36.5117 41.6945 35.0879C44.6657 32.228 48.3399 29.0007 51.2582 27.3928Z" fill="#D9D9D9" stroke="#2D2D2D"/>
<path d="M11.2234 27.6927C9.21643 26.5992 6.56256 26.2084 4.36527 26.1016C3.27468 26.0486 2.31289 26.0661 1.62421 26.0969C1.36695 26.1084 1.14816 26.1217 0.975416 26.1339L0.784609 54.8156L25.6501 40.174C25.3958 39.9038 25.0343 39.5231 24.5864 39.0601C23.6551 38.0974 22.3513 36.7801 20.8608 35.3613C17.8671 32.5115 14.1645 29.2952 11.2234 27.6927Z" fill="#D9D9D9" stroke="#2D2D2D"/>
<path d="M0.778564 56.1938H61.6164V61.0002C61.6164 63.4854 59.6017 65.5002 57.1164 65.5002H5.27856C2.79328 65.5002 0.778564 63.4854 0.778564 61.0002V56.1938Z" fill="#D9D9D9" stroke="#2D2D2D"/>
<path d="M31.5 36.0001L62 56.0001L61 58.0001L0.5 59.5V56L31.5 36.0001Z" fill="#D9D9D9"/>
<path d="M31.4663 35.5798L61.556 55.0876" stroke="#2D2D2D" stroke-linecap="round"/>
<path d="M31.1953 35.5L0.807248 55.5658" stroke="#2D2D2D" stroke-linecap="round"/>
<line x1="61.6953" y1="55.5" x2="61.6953" y2="63.5" stroke="#2D2D2D" stroke-linecap="round"/>
<path d="M61.6951 63.5001C61.6951 63.5001 61.6952 64.5 59.6951 65.5001C57.6951 66.5002 57.6952 66.5 57.1952 66.4999" stroke="#2D2D2D"/>
<path d="M0.695312 54.5L0.695313 62" stroke="#2D2D2D" stroke-linecap="round"/>
<path d="M0.695163 60.9998C0.695163 60.9998 0.523024 63.2969 2.19516 64.4998C3.8673 65.7027 4.41973 65.5778 4.69519 65.5" stroke="#2D2D2D"/>
<path d="M57.6953 66.5L4.1953 65.5001" stroke="#2D2D2D" stroke-linecap="round"/>
</svg>
