<svg width="109" height="128" viewBox="0 0 109 128" fill="none" xmlns="http://www.w3.org/2000/svg">
<rect width="96.3958" height="110.557" transform="translate(6)" fill="#D9D9D9"/>
<g filter="url(#filter0_d_144_2738)">
<path d="M64.3829 82.7227C59.9953 86.1724 53.6007 85.3757 50.1021 80.926C46.6034 76.4763 47.3379 70.0742 51.7254 66.6245C56.1129 63.1747 62.5076 63.9714 66.0062 68.4211C69.5048 72.8708 68.7704 79.2729 64.3829 82.7227Z" stroke="#857A6D" stroke-opacity="0.5"/>
<ellipse cx="57.9781" cy="74.5766" rx="8.88761" ry="8.64073" transform="rotate(51.8232 57.9781 74.5766)" fill="#E7C994"/>
<path d="M63.1624 81.1702C59.6385 83.941 54.4501 83.2604 51.5787 79.6083C48.7072 75.9563 49.2699 70.7538 52.7938 67.9831C56.3178 65.2123 61.5062 65.8929 64.3776 69.5449C67.2491 73.197 66.6864 78.3994 63.1624 81.1702Z" stroke="#857A6D" stroke-opacity="0.5"/>
<circle cx="37.4286" cy="74.4034" r="3.20629" transform="rotate(51.8232 37.4286 74.4034)" stroke="#857A6D" stroke-opacity="0.5" stroke-width="0.5"/>
<circle cx="77.723" cy="74.1263" r="3.20629" transform="rotate(51.8232 77.723 74.1263)" stroke="#857A6D" stroke-opacity="0.5" stroke-width="0.5"/>
<rect x="86.736" y="58.766" width="30.2958" height="56.7971" transform="rotate(90.2307 86.736 58.766)" fill="#D9D9D9" stroke="#2D2D2D"/>
<path d="M64.4447 82.8013C60.0129 86.2859 53.5556 85.4801 50.0235 80.9878C46.4913 76.4956 47.2318 70.0304 51.6636 66.5459C56.0954 63.0613 62.5527 63.8671 66.0848 68.3593C69.6169 72.8516 68.8765 79.3167 64.4447 82.8013Z" fill="#2D2D2D" fill-opacity="0.5" stroke="#2D2D2D" stroke-width="0.8"/>
<path d="M63.3167 81.3667C59.679 84.2269 54.3346 83.5182 51.3819 79.7629C48.4292 76.0075 49.0014 70.6467 52.6391 67.7865C56.2768 64.9263 61.6212 65.6351 64.5739 69.3904C67.5266 73.1457 66.9544 78.5065 63.3167 81.3667Z" fill="#857A6D" fill-opacity="0.5" stroke="#2D2D2D" stroke-width="0.5"/>
<circle cx="37.4283" cy="74.4031" r="3.20629" transform="rotate(51.8232 37.4283 74.4031)" fill="#857A6D" fill-opacity="0.5" stroke="#2D2D2D" stroke-width="0.5"/>
<circle cx="77.723" cy="74.126" r="3.20629" transform="rotate(51.8232 77.723 74.126)" fill="#857A6D" fill-opacity="0.5" stroke="#2D2D2D" stroke-width="0.5"/>
<path d="M59.6867 79.5271C58.7112 79.6915 57.8383 79.6092 57.0682 79.2799C56.3019 78.9453 55.6692 78.4202 55.1699 77.7046C54.6699 76.9843 54.3361 76.1272 54.1686 75.1333C54.0162 74.0894 54.059 73.1499 54.2968 72.3147C54.5338 71.475 54.9568 70.7837 55.5657 70.2409C56.1785 69.6928 56.9703 69.3369 57.9413 69.1732C58.383 69.0987 58.8176 69.0799 59.245 69.1167C59.6763 69.1481 60.0846 69.2401 60.47 69.3929L59.9876 70.5319C59.7028 70.4143 59.4019 70.342 59.085 70.3149C58.7719 70.2825 58.4566 70.2931 58.1391 70.3466C57.3974 70.4669 56.8091 70.7388 56.3741 71.1624C55.9384 71.5813 55.6475 72.1154 55.5014 72.7647C55.3591 73.4087 55.352 74.1245 55.4801 74.9122C55.6196 75.7121 55.8645 76.3925 56.2146 76.9535C56.5639 77.5098 57.0131 77.9144 57.5621 78.1673C58.1104 78.4157 58.7526 78.4778 59.4889 78.3536C60.1401 78.2581 60.7069 77.9992 61.1895 77.5771L62.0094 78.4824C61.6907 78.7539 61.3333 78.9774 60.937 79.153C60.5406 79.3287 60.1239 79.4534 59.6867 79.5271ZM53.3756 76.9564L53.2045 75.9418L59.548 74.8724L59.7191 75.8871L53.3756 76.9564ZM52.9963 74.7062L52.8252 73.6915L59.1687 72.6221L59.3397 73.6368L52.9963 74.7062Z" fill="#2D2D2D"/>
</g>
<g filter="url(#filter1_d_144_2738)">
<path d="M61.9779 59.8625C59.4051 64.8154 53.2516 66.7287 48.2284 64.1194C43.2053 61.5101 41.2322 55.3755 43.805 50.4226C46.3779 45.4696 52.5314 43.5564 57.5545 46.1656C62.5777 48.7749 64.5507 54.9095 61.9779 59.8625Z" stroke="#857A6D" stroke-opacity="0.5"/>
<ellipse cx="52.7821" cy="55.0856" rx="8.88761" ry="8.64073" transform="rotate(27.4497 52.7821 55.0856)" fill="#E7C994"/>
<path d="M60.2254 58.9521C58.1589 62.9302 53.1521 64.4514 49.0294 62.3099C44.9067 60.1683 43.2723 55.1973 45.3388 51.2192C47.4052 47.2411 52.412 45.7199 56.5347 47.8614C60.6574 50.003 62.2918 54.974 60.2254 58.9521Z" stroke="#857A6D" stroke-opacity="0.5"/>
<circle cx="33.9925" cy="63.4082" r="3.20629" transform="rotate(27.4497 33.9925 63.4082)" stroke="#857A6D" stroke-opacity="0.5" stroke-width="0.5"/>
<circle cx="70.5813" cy="46.5269" r="3.20629" transform="rotate(27.4497 70.5813 46.5269)" stroke="#857A6D" stroke-opacity="0.5" stroke-width="0.5"/>
<rect x="72.4521" y="28.8163" width="30.2958" height="56.7971" transform="rotate(65.8571 72.4521 28.8163)" fill="#D9D9D9" stroke="#2D2D2D"/>
<path d="M62.0664 59.9086C59.4676 64.9115 53.2533 66.8424 48.1821 64.2081C43.1109 61.5739 41.1173 55.3794 43.7161 50.3765C46.3149 45.3735 52.5292 43.4427 57.6004 46.0769C62.6716 48.7111 64.6652 54.9056 62.0664 59.9086Z" fill="#2D2D2D" fill-opacity="0.5" stroke="#2D2D2D" stroke-width="0.8"/>
<path d="M60.4472 59.0673C58.3141 63.1738 53.1535 64.7338 48.9142 62.5317C44.6749 60.3296 42.9838 55.2105 45.1169 51.104C47.25 46.9975 52.4107 45.4375 56.6499 47.6396C60.8892 49.8417 62.5803 54.9608 60.4472 59.0673Z" fill="#857A6D" fill-opacity="0.5" stroke="#2D2D2D" stroke-width="0.5"/>
<circle cx="33.9922" cy="63.4082" r="3.20629" transform="rotate(27.4497 33.9922 63.4082)" fill="#857A6D" fill-opacity="0.5" stroke="#2D2D2D" stroke-width="0.5"/>
<circle cx="70.5813" cy="46.5269" r="3.20629" transform="rotate(27.4497 70.5813 46.5269)" fill="#857A6D" fill-opacity="0.5" stroke="#2D2D2D" stroke-width="0.5"/>
<path d="M56.3816 58.8896C55.5609 59.442 54.7318 59.7272 53.8945 59.7451C53.0584 59.7566 52.2653 59.5394 51.5152 59.0936C50.7626 58.6439 50.1048 58.0009 49.542 57.1647C48.9725 56.2767 48.6237 55.4033 48.4956 54.5444C48.365 53.6817 48.465 52.8775 48.7956 52.1318C49.1276 51.3796 49.702 50.7286 50.5188 50.1788C50.8905 49.9287 51.2786 49.7322 51.6831 49.5893C52.0888 49.44 52.4987 49.3553 52.9128 49.3354L52.9435 50.572C52.6355 50.5824 52.3316 50.6407 52.0318 50.7468C51.7333 50.8465 51.4504 50.9863 51.1833 51.1661C50.5574 51.5817 50.1337 52.0722 49.9123 52.6375C49.6882 53.1989 49.6437 53.8055 49.7786 54.4572C49.9147 55.1025 50.2037 55.7574 50.6454 56.422C51.1026 57.0931 51.6064 57.6118 52.1568 57.9783C52.7046 58.3409 53.2808 58.524 53.8852 58.5279C54.4871 58.5278 55.0977 58.3193 55.7172 57.9024C56.2709 57.5466 56.6804 57.0769 56.9457 56.4933L58.0662 56.9796C57.8879 57.3583 57.6546 57.7094 57.3661 58.033C57.0775 58.3565 56.7494 58.6421 56.3816 58.8896ZM49.5721 59.1526L48.9975 58.2989L54.3344 54.707L54.9089 55.5607L49.5721 59.1526ZM48.2979 57.2594L47.7234 56.4058L53.0602 52.8139L53.6347 53.6675L48.2979 57.2594Z" fill="#2D2D2D"/>
</g>
<g filter="url(#filter2_d_144_2738)">
<path d="M47.0043 40.0816C47.0043 45.6629 42.4255 50.1973 36.7651 50.1973C31.1047 50.1973 26.5259 45.6629 26.5259 40.0816C26.5259 34.5002 31.1047 29.9658 36.7651 29.9658C42.4255 29.9658 47.0043 34.5002 47.0043 40.0816Z" stroke="#857A6D" stroke-opacity="0.5"/>
<ellipse cx="36.6418" cy="40.0816" rx="8.88761" ry="8.64073" fill="#E7C994"/>
<path d="M45.0294 40.0816C45.0294 44.5645 41.2875 48.2224 36.6418 48.2224C31.996 48.2224 28.2542 44.5645 28.2542 40.0816C28.2542 35.5988 31.996 31.9409 36.6418 31.9409C41.2875 31.9409 45.0294 35.5988 45.0294 40.0816Z" stroke="#857A6D" stroke-opacity="0.5"/>
<circle cx="23.8039" cy="56.1285" r="3.20629" stroke="#857A6D" stroke-opacity="0.5" stroke-width="0.5"/>
<circle cx="48.4917" cy="24.2815" r="3.20629" stroke="#857A6D" stroke-opacity="0.5" stroke-width="0.5"/>
<rect x="41.9877" y="7.70243" width="30.2958" height="56.7971" transform="rotate(38.4074 41.9877 7.70243)" fill="#D9D9D9" stroke="#2D2D2D"/>
<path d="M47.104 40.0816C47.104 45.7192 42.4794 50.2973 36.7648 50.2973C31.0503 50.2973 26.4256 45.7192 26.4256 40.0816C26.4256 34.4439 31.0503 29.8658 36.7648 29.8658C42.4794 29.8658 47.104 34.4439 47.104 40.0816Z" fill="#2D2D2D" fill-opacity="0.5" stroke="#2D2D2D" stroke-width="0.8"/>
<path d="M45.2791 40.0816C45.2791 44.7091 41.4186 48.4724 36.6415 48.4724C31.8644 48.4724 28.0039 44.7091 28.0039 40.0816C28.0039 35.4542 31.8644 31.6909 36.6415 31.6909C41.4186 31.6909 45.2791 35.4542 45.2791 40.0816Z" fill="#857A6D" fill-opacity="0.5" stroke="#2D2D2D" stroke-width="0.5"/>
<circle cx="23.8037" cy="56.1287" r="3.20629" fill="#857A6D" fill-opacity="0.5" stroke="#2D2D2D" stroke-width="0.5"/>
<circle cx="48.4914" cy="24.2815" r="3.20629" fill="#857A6D" fill-opacity="0.5" stroke="#2D2D2D" stroke-width="0.5"/>
<path d="M41.5892 41.798C41.1155 42.6666 40.5112 43.3018 39.7764 43.7037C39.0397 44.0993 38.2358 44.2721 37.3647 44.2222C36.4895 44.1701 35.6094 43.9028 34.7244 43.4201C33.8097 42.8946 33.0976 42.2803 32.588 41.5772C32.0744 40.8718 31.7924 40.112 31.7421 39.2979C31.6899 38.4774 31.8996 37.6349 32.3711 36.7705C32.5856 36.3772 32.8394 36.0239 33.1325 35.7107C33.4237 35.3911 33.7484 35.127 34.1067 34.9184L34.704 36.0017C34.4355 36.1529 34.1926 36.3447 33.9755 36.5771C33.7565 36.8032 33.57 37.0576 33.4158 37.3403C33.0519 37.9976 32.9021 38.6282 32.9661 39.2319C33.0261 39.8334 33.2662 40.3922 33.6863 40.9084C34.1046 41.4183 34.6629 41.8663 35.3613 42.2525C36.0764 42.6372 36.7626 42.8653 37.42 42.9368C38.0732 43.006 38.6689 42.903 39.2071 42.6277C39.7412 42.3502 40.187 41.8837 40.5445 41.2282C40.8718 40.6573 41.0187 40.0517 40.9852 39.4114L42.2036 39.3265C42.22 39.7447 42.1748 40.1639 42.0679 40.584C41.961 41.0041 41.8015 41.4088 41.5892 41.798ZM35.6675 45.1704L34.7642 44.6777L37.8444 39.03L38.7477 39.5227L35.6675 45.1704ZM33.6641 44.0777L32.7607 43.585L35.8409 37.9374L36.7443 38.4301L33.6641 44.0777Z" fill="#2D2D2D"/>
</g>
<defs>
<filter id="filter0_d_144_2738" x="8.15723" y="28.0417" width="100.239" height="99.5154" filterUnits="userSpaceOnUse" color-interpolation-filters="sRGB">
<feFlood flood-opacity="0" result="BackgroundImageFix"/>
<feColorMatrix in="SourceAlpha" type="matrix" values="0 0 0 0 0 0 0 0 0 0 0 0 0 0 0 0 0 0 127 0" result="hardAlpha"/>
<feOffset dy="4"/>
<feGaussianBlur stdDeviation="3"/>
<feComposite in2="hardAlpha" operator="out"/>
<feColorMatrix type="matrix" values="0 0 0 0 0 0 0 0 0 0 0 0 0 0 0 0 0 0 0.25 0"/>
<feBlend mode="normal" in2="BackgroundImageFix" result="effect1_dropShadow_144_2738"/>
<feBlend mode="normal" in="SourceGraphic" in2="effect1_dropShadow_144_2738" result="shape"/>
</filter>
<filter id="filter1_d_144_2738" x="13.9624" y="26.1555" width="77.5417" height="64.198" filterUnits="userSpaceOnUse" color-interpolation-filters="sRGB">
<feFlood flood-opacity="0" result="BackgroundImageFix"/>
<feColorMatrix in="SourceAlpha" type="matrix" values="0 0 0 0 0 0 0 0 0 0 0 0 0 0 0 0 0 0 127 0" result="hardAlpha"/>
<feOffset dy="4"/>
<feGaussianBlur stdDeviation="3"/>
<feComposite in2="hardAlpha" operator="out"/>
<feColorMatrix type="matrix" values="0 0 0 0 0 0 0 0 0 0 0 0 0 0 0 0 0 0 0.25 0"/>
<feBlend mode="normal" in2="BackgroundImageFix" result="effect1_dropShadow_144_2738"/>
<feBlend mode="normal" in="SourceGraphic" in2="effect1_dropShadow_144_2738" result="shape"/>
</filter>
<filter id="filter2_d_144_2738" x="0" y="5" width="72.4302" height="76.733" filterUnits="userSpaceOnUse" color-interpolation-filters="sRGB">
<feFlood flood-opacity="0" result="BackgroundImageFix"/>
<feColorMatrix in="SourceAlpha" type="matrix" values="0 0 0 0 0 0 0 0 0 0 0 0 0 0 0 0 0 0 127 0" result="hardAlpha"/>
<feOffset dy="4"/>
<feGaussianBlur stdDeviation="3"/>
<feComposite in2="hardAlpha" operator="out"/>
<feColorMatrix type="matrix" values="0 0 0 0 0 0 0 0 0 0 0 0 0 0 0 0 0 0 0.25 0"/>
<feBlend mode="normal" in2="BackgroundImageFix" result="effect1_dropShadow_144_2738"/>
<feBlend mode="normal" in="SourceGraphic" in2="effect1_dropShadow_144_2738" result="shape"/>
</filter>
</defs>
</svg>
