<svg width="50" height="75" viewBox="0 0 50 75" fill="none" xmlns="http://www.w3.org/2000/svg">
<path d="M48.4138 30.2277C51.986 48.0891 42.7974 63.3524 26.6554 63.3524C10.5134 63.3524 1 50.548 1 33.1505C5.87128 14.6396 11.0673 6.52082 26.6554 4.24756C40.295 10.0931 48.4138 12.8302 48.4138 30.2277Z" fill="#D9D9D9"/>
<path d="M6.84521 52.9603L47.4392 50.3623C47.4392 50.3623 48.2731 57.7491 45.1659 62.3781C42.0588 67.0072 35.4234 72.7702 35.4234 72.7702C35.4234 72.7702 24.6613 72.0492 19.1858 68.5484C13.7103 65.0476 10.0927 58.4811 10.0927 58.4811L6.84521 52.9603Z" fill="#D9D9D9"/>
<path d="M7.30412 53.573C2.80773 48.071 1 41.5052 1 32.3967C5.72809 13.5366 10.7714 5.26464 25.9013 2.94849C39.1399 8.90431 47.02 11.6931 47.02 29.4188C48.4161 36.7464 47.8042 43.6447 45.5521 49.2716" stroke="#F4414C"/>
<path d="M6.98901 53.2419L9.79283 57.481C9.79283 57.481 13.2672 64.6562 18.5261 68.4816C23.785 72.3069 34.1212 73.0947 34.1212 73.0947C34.1212 73.0947 40.4941 66.7975 43.4783 61.7393C46.4625 56.6811 45.6616 48.6096 45.6616 48.6096" stroke="#F4414C"/>
<path d="M38.3183 41.7843C38.3183 44.3818 37.1534 44.8078 34.047 45.8157C30.5522 44.8078 30.5522 43.7099 30.5522 41.1124C30.5522 38.5148 33.2006 36.0731 35.9885 36.0731C38.7763 36.0731 38.3183 39.1867 38.3183 41.7843Z" fill="#F4414C"/>
<path d="M16.2355 45.6814C16.2355 48.2789 15.0706 48.7049 11.9642 49.7128C8.46948 48.7049 8.46948 47.607 8.46948 45.0095C8.46948 42.4119 11.1178 39.9702 13.9057 39.9702C16.6936 39.9702 16.2355 43.0838 16.2355 45.6814Z" fill="#F4414C"/>
<path d="M35.7201 42.4338C35.7201 45.0314 34.5552 45.4574 31.4488 46.4652C27.9541 45.4574 27.9541 44.3595 27.9541 41.7619C27.9541 39.1643 30.6024 36.7227 33.3903 36.7227C36.1782 36.7227 35.7201 39.8362 35.7201 42.4338Z" fill="#419EF4"/>
<path d="M15.5856 45.0318C15.5856 47.6294 14.4207 48.0554 11.3143 49.0632C7.81958 48.0554 7.81958 46.9575 7.81958 44.3599C7.81958 41.7624 10.4679 39.3207 13.2558 39.3207C16.0437 39.3207 15.5856 42.4343 15.5856 45.0318Z" fill="#419EF4"/>
<path d="M14.9645 46.1405C14.9645 48.6515 13.9903 49.0633 11.3922 50.0376C8.46948 49.0633 8.46948 48.002 8.46948 45.491C8.46948 42.9801 10.6844 40.6198 13.016 40.6198C15.3476 40.6198 14.9645 43.6296 14.9645 46.1405Z" fill="#2D2D2D"/>
<path d="M35.4262 43.8673C35.4262 46.3783 34.4519 46.7901 31.8539 47.7644C28.9312 46.7901 28.9312 45.7288 28.9312 43.2178C28.9312 40.7069 31.1461 38.3466 33.4777 38.3466C35.8093 38.3466 35.4262 41.3564 35.4262 43.8673Z" fill="#2D2D2D"/>
<path d="M8.60319 54.8721C4.10681 49.3701 2.29907 42.8043 2.29907 33.6958C7.02716 14.8357 12.0705 6.56371 27.2003 4.24756C40.439 10.2034 48.3191 12.9922 48.3191 30.7179C49.7152 38.0454 49.1032 44.9438 46.8512 50.5707" stroke="#2D2D2D"/>
<path d="M8.28809 54.541L11.0919 58.7801C11.0919 58.7801 14.5663 65.9553 19.8252 69.7806C25.0841 73.606 35.4203 74.3938 35.4203 74.3938C35.4203 74.3938 41.7931 68.0965 44.7774 63.0384C47.7616 57.9802 46.9607 49.9087 46.9607 49.9087" stroke="#2D2D2D"/>
<path d="M7.30412 51.6245C2.80773 46.1225 1 39.5567 1 30.4483C5.72809 11.5881 10.7714 3.31615 25.9013 1C39.1399 6.95583 47.02 9.7446 47.02 27.4703C48.4161 34.7979 47.8042 41.6963 45.5521 47.3231" stroke="#419EF4"/>
<path d="M6.98901 51.2934L9.79283 55.5325C9.79283 55.5325 13.2672 62.7077 18.5261 66.5331C23.785 70.3584 34.1212 71.1462 34.1212 71.1462C34.1212 71.1462 40.4941 64.849 43.4783 59.7908C46.4625 54.7326 45.6616 46.6611 45.6616 46.6611" stroke="#419EF4"/>
<line x1="28.0587" y1="17.7047" x2="17.7047" y2="29.9413" stroke="#2D2D2D" stroke-linecap="round"/>
<path d="M17.2591 17.3489L29.6216 29.8616" stroke="#2D2D2D" stroke-linecap="round"/>
</svg>
