<svg width="61" height="102" viewBox="0 0 61 102" fill="none" xmlns="http://www.w3.org/2000/svg">
<g filter="url(#filter0_f_144_2733)">
<path d="M21.2753 62.1063C21.2753 74.0719 47.1695 98 37.8987 98C28.6278 98 4 81.9944 4 70.0288C4 58.0632 24.5534 35.5902 33.8243 35.5902C43.0951 35.5902 21.2753 50.1407 21.2753 62.1063Z" fill="#2D2D2D" fill-opacity="0.8"/>
<path d="M21.0253 62.1063C21.0253 65.1705 22.6766 68.9607 24.9603 72.8883C27.1509 76.6559 29.9501 80.5928 32.5135 84.1981C32.6295 84.3611 32.7449 84.5235 32.8598 84.6851C35.5229 88.4322 37.8737 91.7751 38.9855 94.1792C39.2623 94.7779 39.4582 95.3098 39.5635 95.7689C39.6693 96.2301 39.6796 96.6001 39.6044 96.8846C39.5318 97.1591 39.3771 97.3656 39.118 97.51C38.8498 97.6596 38.4553 97.75 37.8987 97.75C35.6373 97.75 32.4006 96.7692 28.7967 95.0857C25.2009 93.4061 21.2681 91.0406 17.6229 88.3016C13.977 85.5621 10.627 82.4549 8.19095 79.2947C5.75081 76.1291 4.25 72.9392 4.25 70.0288C4.25 67.0997 5.51128 63.4958 7.57569 59.7197C9.63677 55.9497 12.484 52.034 15.6228 48.4881C18.7617 44.942 22.1861 41.7728 25.3978 39.4924C28.6213 37.2037 31.5893 35.8402 33.8243 35.8402C34.3901 35.8402 34.8202 35.896 35.1364 35.9951C35.4514 36.0938 35.637 36.23 35.741 36.3808C35.9467 36.6788 35.9174 37.1729 35.5491 37.9428C35.1905 38.6926 34.5547 39.6107 33.7304 40.6717C32.9715 41.6484 32.0631 42.7334 31.0823 43.9048C31.0003 44.0029 30.9177 44.1015 30.8346 44.2007C28.6878 46.7659 26.239 49.7191 24.3277 52.7829C22.4188 55.8426 21.0253 59.0443 21.0253 62.1063Z" stroke="#D9D9D9" stroke-width="0.5"/>
</g>
<path d="M19.8558 62.242C19.8558 64.9695 21.2336 68.3418 23.1372 71.834C24.9633 75.1839 27.2965 78.6842 29.4325 81.8887C29.5292 82.0337 29.6255 82.1781 29.7213 82.3219C31.9411 85.6533 33.8985 88.6227 34.824 90.7574C35.0544 91.2888 35.2171 91.7604 35.3046 92.1671C35.3926 92.576 35.4008 92.9027 35.3388 93.1527C35.2791 93.3937 35.1533 93.5693 34.9484 93.6912C34.735 93.8181 34.4166 93.8975 33.9586 93.8975C32.0872 93.8975 29.399 93.0304 26.3969 91.5346C23.4037 90.0432 20.129 87.9423 17.0934 85.5093C14.0572 83.0758 11.2678 80.3161 9.2398 77.5098C7.20846 74.6988 5.95972 71.8672 5.95972 69.2842C5.95972 66.6836 7.00965 63.4829 8.72914 60.128C10.4458 56.7787 12.8173 53.2997 15.4317 50.1493C18.0465 46.9985 20.8982 44.1836 23.5716 42.1589C24.9083 41.1465 26.196 40.335 27.3835 39.7775C28.5733 39.219 29.6481 38.9221 30.5633 38.9221C31.5213 38.9221 31.9562 39.1279 32.1222 39.3844C32.2878 39.6406 32.2669 40.0735 31.9605 40.7569C31.6626 41.4211 31.1341 42.2355 30.4475 43.1781C29.8154 44.0459 29.0587 45.0099 28.2413 46.0513C28.173 46.1384 28.1042 46.226 28.035 46.3142C26.2461 48.5942 24.2042 51.2208 22.6104 53.9459C21.0186 56.6676 19.8558 59.5167 19.8558 62.242Z" fill="#FEFEFE" stroke="#D9D9D9" stroke-width="0.5"/>
<g filter="url(#filter1_f_144_2733)">
<path d="M43.0153 30.5161C43.0153 42.4817 22.0533 66.4098 29.5582 66.4098C37.0632 66.4098 57 50.4042 57 38.4386C57 26.473 40.3615 4 32.8565 4C25.3516 4 43.0153 18.5505 43.0153 30.5161Z" fill="#2D2D2D" fill-opacity="0.8"/>
<path d="M43.2653 30.5161C43.2653 33.5669 41.9331 37.3492 40.0834 41.2789C38.3103 45.0459 36.0445 48.9824 33.9692 52.588C33.8754 52.7509 33.782 52.9132 33.6891 53.0747C31.5336 56.821 29.6298 60.1653 28.7289 62.5718C28.2748 63.7846 28.0976 64.7053 28.2262 65.306C28.2878 65.5939 28.4172 65.7965 28.6144 65.9323C28.8173 66.072 29.1194 66.1598 29.5582 66.1598C31.3652 66.1598 33.9701 65.1887 36.8872 63.5055C39.7936 61.8284 42.9743 59.4654 45.9234 56.7281C48.8727 53.9905 51.5837 50.8847 53.5555 47.7247C55.5295 44.5614 56.75 41.3643 56.75 38.4386C56.75 35.4977 55.7255 31.8868 54.0544 28.1108C52.3852 24.3393 50.08 20.4232 47.5394 16.8778C44.9984 13.3319 42.2275 10.1643 39.6303 7.88632C38.3316 6.74724 37.0812 5.83497 35.9293 5.20864C34.7743 4.58071 33.7361 4.25 32.8565 4.25C31.9383 4.25 31.5215 4.47511 31.3566 4.77049C31.1811 5.08471 31.213 5.60103 31.5108 6.37021C32.0775 7.8338 33.4762 9.89757 35.1435 12.3578C35.2048 12.4482 35.2665 12.5392 35.3285 12.6307C37.0666 15.1962 39.0488 18.1492 40.5957 21.2123C42.1415 24.273 43.2653 27.4674 43.2653 30.5161Z" stroke="#D9D9D9" stroke-width="0.5"/>
</g>
<path d="M44.9105 31.0949C44.9105 33.7768 43.7322 37.0978 42.0999 40.5427C40.5349 43.8458 38.535 47.2974 36.7041 50.4575C36.6212 50.6005 36.5387 50.7428 36.4567 50.8846C34.5543 54.1692 32.876 57.0981 32.0822 59.2044C31.6817 60.2673 31.5287 61.0664 31.64 61.583C31.693 61.8286 31.8032 61.9988 31.9699 62.1129C32.1425 62.2309 32.4028 62.3073 32.7867 62.3073C34.3734 62.3073 36.6663 61.4594 39.2394 59.9844C41.8017 58.5156 44.6065 56.4457 47.2071 54.0477C49.8081 51.6494 52.1981 48.9291 53.9362 46.1621C55.6764 43.3917 56.75 40.5953 56.75 38.0393C56.75 35.4681 55.8481 32.3077 54.3743 28.9996C52.9025 25.696 50.8696 22.2652 48.629 19.159C46.3879 16.0522 43.9445 13.2776 41.655 11.2827C40.5101 10.2852 39.4087 9.48696 38.3947 8.93929C37.3778 8.39004 36.4665 8.10242 35.6969 8.10242C34.8885 8.10242 34.5357 8.29978 34.3988 8.54345C34.2516 8.80516 34.2743 9.24491 34.5368 9.91834C35.0354 11.1978 36.2679 13.0043 37.741 15.1636C37.7943 15.2418 37.848 15.3205 37.902 15.3997C39.4355 17.6482 41.1856 20.2383 42.5516 22.9252C43.9164 25.6098 44.9105 28.4151 44.9105 31.0949Z" fill="#FEFEFE" stroke="#D9D9D9" stroke-width="0.5"/>
<circle cx="46" cy="58" r="4.5" fill="#D9D9D9" stroke="#D9D9D9"/>
<circle cx="19" cy="9" r="4.5" fill="#D9D9D9" stroke="#D9D9D9"/>
<circle cx="13" cy="50" r="4.5" fill="#D9D9D9" stroke="#D9D9D9"/>
<circle cx="51.5" cy="71.5" r="2" fill="#D9D9D9" stroke="#D9D9D9"/>
<circle cx="23.5" cy="41.5" r="2" fill="#D9D9D9" stroke="#D9D9D9"/>
<circle cx="36.5" cy="76.5" r="2" fill="#D9D9D9" stroke="#D9D9D9"/>
<circle cx="31.5" cy="20.5" r="2" fill="#D9D9D9" stroke="#D9D9D9"/>
<circle cx="19.5" cy="60.5" r="2" fill="#D9D9D9" stroke="#D9D9D9"/>
<circle cx="51.5" cy="89.5" r="2" fill="#D9D9D9" stroke="#D9D9D9"/>
<circle cx="45.5" cy="80.5" r="1" fill="#D9D9D9" stroke="#D9D9D9"/>
<circle cx="16.5" cy="28.5" r="1" fill="#D9D9D9" stroke="#D9D9D9"/>
<circle cx="30.5" cy="49.5" r="1" fill="#D9D9D9" stroke="#D9D9D9"/>
<circle cx="41.5" cy="97.5" r="1" fill="#D9D9D9" stroke="#D9D9D9"/>
<defs>
<filter id="filter0_f_144_2733" x="0" y="31.5902" width="43.9033" height="70.4098" filterUnits="userSpaceOnUse" color-interpolation-filters="sRGB">
<feFlood flood-opacity="0" result="BackgroundImageFix"/>
<feBlend mode="normal" in="SourceGraphic" in2="BackgroundImageFix" result="shape"/>
<feGaussianBlur stdDeviation="2" result="effect1_foregroundBlur_144_2733"/>
</filter>
<filter id="filter1_f_144_2733" x="23.9355" y="0" width="37.0645" height="70.4098" filterUnits="userSpaceOnUse" color-interpolation-filters="sRGB">
<feFlood flood-opacity="0" result="BackgroundImageFix"/>
<feBlend mode="normal" in="SourceGraphic" in2="BackgroundImageFix" result="shape"/>
<feGaussianBlur stdDeviation="2" result="effect1_foregroundBlur_144_2733"/>
</filter>
</defs>
</svg>
