<svg width="60" height="112" viewBox="0 0 60 112" fill="none" xmlns="http://www.w3.org/2000/svg">
<path d="M5.02864 31.9967C5.50971 20.7999 7.0768 7.67879 19.0697 4.53399C52.5084 3.1053 50.3627 18.1914 19.0697 38.6638C-10.2902 57.8715 56.2977 42.7911 52.5086 62.1578C-7.97411 80.8896 83.8015 134.069 17.4776 97.3985C-8.14567 72.4758 25.005 73.6524 25.005 57.8715C25.005 42.0907 -12.6317 80.8893 5.02864 31.9967Z" fill="#FEFEFE"/>
<path d="M7.82916 31.9145L7.84996 31.857L7.85258 31.7958C8.09307 26.1986 8.60453 20.1777 10.5299 15.1714C12.4431 10.1966 15.7391 6.25311 21.5541 4.71378C29.8738 4.36153 35.93 5.03934 39.8587 6.54074C41.8232 7.29147 43.2307 8.23869 44.1298 9.34174C45.0225 10.437 45.4317 11.7069 45.3688 13.1506C45.2413 16.0734 43.1746 19.7422 39.1088 23.999C35.0585 28.2397 29.0843 33.0021 21.275 38.1111C17.6019 40.5141 15.371 42.4158 14.3261 43.9506C13.8007 44.7222 13.5441 45.4461 13.6037 46.122C13.6645 46.8113 14.0462 47.3684 14.6207 47.8129C15.1882 48.2521 15.9655 48.6001 16.8836 48.8871C17.806 49.1754 18.8957 49.4096 20.1062 49.6086C22.5259 50.0063 25.4679 50.2691 28.5909 50.5318C28.8845 50.5565 29.1798 50.5812 29.4764 50.606C35.5124 51.111 42.1039 51.6625 47.0607 53.182C49.6608 53.9791 51.7586 55.0281 53.0894 56.4328C54.3543 57.768 54.9487 59.4468 54.5828 61.6299C39.5648 66.333 33.8359 73.2205 32.8735 80.4526C31.915 87.6556 35.7231 95.0233 39.2712 100.552C40.1619 101.94 41.0405 103.218 41.8292 104.354C41.963 104.546 42.094 104.735 42.222 104.919C42.8507 105.822 43.4059 106.62 43.8492 107.302C44.3908 108.135 44.7329 108.747 44.8502 109.143C44.8874 109.268 44.8913 109.338 44.8902 109.37C44.8756 109.374 44.8535 109.377 44.8214 109.38C44.6815 109.39 44.4469 109.362 44.086 109.262C43.7321 109.165 43.285 109.007 42.7319 108.78C41.6258 108.328 40.1257 107.615 38.1504 106.607C34.2088 104.595 28.4092 101.427 20.1424 96.8564C13.778 90.6582 11.1401 86.15 10.6646 82.6554C10.1946 79.2014 11.8289 76.6391 14.3313 74.2799C15.5847 73.0981 17.0391 71.9836 18.5343 70.8415L18.6037 70.7884C20.0706 69.668 21.5725 68.5208 22.9211 67.2764C25.6639 64.7455 27.8293 61.7612 27.8293 57.6535C27.8293 55.6068 27.2142 54.3094 26.0388 53.6654C24.9109 53.0476 23.385 53.1066 21.7456 53.4364C20.0891 53.7696 18.212 54.4032 16.3235 55.0444L16.2182 55.0802C14.3523 55.7138 12.4735 56.3518 10.7309 56.7427C8.9481 57.1426 7.36763 57.2689 6.12461 56.9066C4.9197 56.5555 3.99288 55.7346 3.50694 54.1141C3.01143 52.4617 2.97744 49.979 3.63446 46.352C4.28995 42.7334 5.62555 38.0152 7.82916 31.9145ZM44.9154 109.361C44.9157 109.361 44.914 109.362 44.9094 109.364C44.9127 109.362 44.915 109.361 44.9154 109.361Z" stroke="#E41088" stroke-width="0.8"/>
<path d="M4.95029 27.6412L4.96329 27.6052L4.96493 27.567C5.20543 21.9693 5.71711 15.9264 7.65209 10.8951C9.5795 5.88354 12.9107 1.89395 18.7937 0.342186C27.1285 -0.0119095 33.2145 0.664856 37.1745 2.17822C39.1545 2.93491 40.5875 3.89488 41.5083 5.02456C42.4251 6.14936 42.8453 7.45563 42.7808 8.93468C42.6509 11.9149 40.5503 15.6181 36.4795 19.8802C32.4183 24.1322 26.4339 28.9018 18.6193 34.0142C14.9474 36.4164 12.739 38.3044 11.7123 39.8126C11.1971 40.5693 10.96 41.2586 11.0153 41.8864C11.0715 42.5227 11.423 43.045 11.9747 43.4718C12.522 43.8954 13.2801 44.2369 14.1906 44.5215C15.1038 44.8069 16.1859 45.0398 17.3927 45.2382C19.8056 45.6347 22.7416 45.8971 25.8657 46.1599C26.1615 46.1848 26.4591 46.2097 26.7581 46.2347C32.7878 46.7391 39.3941 47.2918 44.3668 48.8162C46.9765 49.6162 49.1035 50.6748 50.4605 52.1072C51.7762 53.4961 52.3828 55.2508 51.9771 57.5233C36.9204 62.2188 31.2376 69.087 30.2844 76.2499C29.3336 83.3943 33.1122 90.7207 36.6597 96.2485C37.5488 97.634 38.4262 98.9104 39.2146 100.046C39.348 100.238 39.4788 100.426 39.6067 100.61C40.2355 101.513 40.7924 102.314 41.2372 102.998C41.7774 103.829 42.1318 104.458 42.2562 104.878C42.32 105.092 42.3052 105.195 42.2865 105.234C42.28 105.247 42.2559 105.295 42.0945 105.307C41.9289 105.319 41.6746 105.286 41.3083 105.185C40.9464 105.085 40.4933 104.924 39.9372 104.697C38.8253 104.242 37.3207 103.526 35.3444 102.518C31.3974 100.504 25.5901 97.331 17.3144 92.7555C10.9344 86.5451 8.26111 82.0027 7.77817 78.4532C7.29867 74.9291 8.97319 72.3217 11.4906 69.9483C12.7507 68.7603 14.2115 67.6411 15.7054 66.4999L15.7722 66.4488C17.2409 65.327 18.7381 64.1834 20.0816 62.9437C22.8112 60.4251 24.9415 57.4778 24.9415 53.4311C24.9415 51.4122 24.3366 50.1813 23.2289 49.5746C22.151 48.9841 20.6719 49.0323 19.0374 49.361C17.3923 49.692 15.5248 50.322 13.6339 50.9641L13.5247 51.0012C11.6618 51.6338 9.77651 52.274 8.02598 52.6666C6.23655 53.0681 4.62534 53.2014 3.34485 52.8282C2.08817 52.462 1.12511 51.601 0.625471 49.9348C0.119849 48.2486 0.0905448 45.7382 0.749065 42.1029C1.40663 38.4728 2.74521 33.7459 4.95029 27.6412Z" stroke="#2D2D2D" stroke-width="0.5"/>
<path d="M11.9503 33.6412L11.9633 33.6052L11.9649 33.567C12.2054 27.9693 12.7171 21.9264 14.6521 16.8951C16.5795 11.8835 19.9107 7.89395 25.7937 6.34219C34.1285 5.98809 40.2145 6.66486 44.1745 8.17822C46.1545 8.93491 47.5875 9.89488 48.5083 11.0246C49.4251 12.1494 49.8453 13.4556 49.7808 14.9347C49.6509 17.9149 47.5503 21.6181 43.4795 25.8802C39.4183 30.1322 33.4339 34.9018 25.6193 40.0142C21.9474 42.4164 19.739 44.3044 18.7123 45.8126C18.1971 46.5693 17.96 47.2586 18.0153 47.8864C18.0715 48.5227 18.423 49.045 18.9747 49.4718C19.522 49.8954 20.2801 50.2369 21.1906 50.5215C22.1038 50.8069 23.1859 51.0398 24.3927 51.2382C26.8056 51.6347 29.7416 51.8971 32.8657 52.1599C33.1615 52.1848 33.4591 52.2097 33.7581 52.2347C39.7878 52.7391 46.3941 53.2918 51.3668 54.8162C53.9765 55.6162 56.1035 56.6748 57.4605 58.1072C58.7762 59.4961 59.3828 61.2508 58.9771 63.5233C43.9204 68.2188 38.2376 75.087 37.2844 82.2499C36.3336 89.3943 40.1122 96.7207 43.6597 102.248C44.5488 103.634 45.4262 104.91 46.2146 106.046C46.348 106.238 46.4788 106.426 46.6067 106.61C47.2355 107.513 47.7924 108.314 48.2372 108.998C48.7774 109.829 49.1318 110.458 49.2562 110.878C49.32 111.092 49.3052 111.195 49.2865 111.234C49.28 111.247 49.2559 111.295 49.0945 111.307C48.9289 111.319 48.6746 111.286 48.3083 111.185C47.9464 111.085 47.4933 110.924 46.9372 110.697C45.8253 110.242 44.3207 109.526 42.3444 108.518C38.3974 106.504 32.5901 103.331 24.3144 98.7555C17.9344 92.5451 15.2611 88.0027 14.7782 84.4532C14.2987 80.9291 15.9732 78.3217 18.4906 75.9483C19.7507 74.7603 21.2115 73.6411 22.7054 72.4999L22.7722 72.4488C24.2409 71.327 25.7381 70.1834 27.0816 68.9437C29.8112 66.4251 31.9415 63.4778 31.9415 59.4311C31.9415 57.4122 31.3366 56.1813 30.2289 55.5746C29.151 54.9841 27.6719 55.0323 26.0374 55.361C24.3923 55.692 22.5248 56.322 20.6339 56.9641L20.5247 57.0012C18.6618 57.6338 16.7765 58.274 15.026 58.6666C13.2366 59.0681 11.6253 59.2014 10.3449 58.8282C9.08817 58.462 8.12511 57.601 7.62547 55.9348C7.11985 54.2486 7.09054 51.7382 7.74906 48.1029C8.40663 44.4728 9.74521 39.7459 11.9503 33.6412Z" stroke="#2D2D2D" stroke-width="0.5"/>
<path d="M7.92321 29.726L7.94921 29.654L7.95249 29.5776C8.19297 23.9806 8.70428 17.9743 10.6232 12.9848C12.527 8.03457 15.7996 4.12172 21.5693 2.59069C29.8788 2.23969 35.9151 2.91818 39.823 4.41162C41.7771 5.15836 43.1677 6.09709 44.0523 7.18239C44.9289 8.25793 45.3308 9.50357 45.2689 10.9237C45.1431 13.8082 43.0989 17.4541 39.0365 21.7074C34.9934 25.9405 29.0261 30.6981 21.2203 35.8048C17.5464 38.2084 15.3004 40.1192 14.2434 41.6718C13.7113 42.4534 13.4417 43.2004 13.5041 43.9083C13.568 44.6329 13.9698 45.2132 14.5595 45.6694C15.1405 46.119 15.9306 46.4714 16.8538 46.76C17.7824 47.0502 18.877 47.2854 20.09 47.4847C22.5143 47.8832 25.4602 48.1463 28.5825 48.4089C28.8747 48.4335 29.1683 48.458 29.4633 48.4827C35.5036 48.9881 42.0853 49.5388 47.0314 51.0551C49.6252 51.8503 51.7035 52.8928 53.0168 54.2791C54.248 55.5786 54.834 57.2071 54.494 59.3304C39.5022 64.0387 33.7429 70.939 32.7744 78.2168C31.8106 85.4589 35.6386 92.8541 39.187 98.3834C40.0788 99.7728 40.9582 101.052 41.7471 102.188C41.881 102.381 42.0122 102.57 42.1402 102.754C42.769 103.657 43.323 104.454 43.7654 105.134C44.3079 105.968 44.6418 106.569 44.7544 106.949C44.7678 106.994 44.7762 107.03 44.7816 107.059C44.6537 107.062 44.4403 107.034 44.1125 106.943C43.7639 106.847 43.3209 106.691 42.7697 106.465C41.6676 106.014 40.1704 105.303 38.1959 104.295C34.2579 102.285 28.4634 99.12 20.2026 94.5528C13.8486 88.3629 11.2342 83.8775 10.7637 80.4194C10.3001 77.0121 11.9075 74.4799 14.3999 72.1301C15.6489 70.9525 17.0991 69.8411 18.595 68.6984L18.666 68.6442C20.1317 67.5246 21.6368 66.3749 22.9889 65.1273C25.7406 62.5883 27.9293 59.5792 27.9293 55.431C27.9293 53.3657 27.3075 52.0239 26.0868 51.3552C24.9257 50.7191 23.3686 50.7854 21.7259 51.1158C20.0619 51.4506 18.1783 52.0865 16.2914 52.7272L16.1888 52.762C14.3208 53.3964 12.4464 54.0329 10.7091 54.4226C8.9306 54.8215 7.37062 54.9431 6.15259 54.5881C4.98219 54.247 4.07953 53.4529 3.60273 51.8628C3.11396 50.2329 3.07684 47.7688 3.73285 44.1473C4.38697 40.5363 5.72059 35.8239 7.92321 29.726Z" stroke="#419EF4"/>
<path d="M6.07756 29.8958L6.12954 29.7519L6.13611 29.599C6.37652 24.0035 6.88712 18.0704 8.77398 13.1642C10.6305 8.33706 13.7857 4.57724 19.3292 3.08795C27.5878 2.74321 33.5247 3.425 37.3286 4.87868C39.2306 5.60551 40.5365 6.50175 41.3488 7.49828C42.1451 8.47531 42.5102 9.5997 42.4534 10.9019C42.336 13.5949 40.4046 17.1264 36.359 21.3621C32.3521 25.5573 26.419 30.2911 18.6306 35.3864C14.9528 37.7925 12.6316 39.749 11.5142 41.3904C10.9482 42.2218 10.6136 43.0843 10.6901 43.9522C10.7696 44.8536 11.272 45.5498 11.9376 46.0649C12.586 46.5666 13.4401 46.9407 14.3887 47.2372C15.348 47.5371 16.4678 47.7767 17.693 47.9781C20.1401 48.3803 23.1059 48.6448 26.2247 48.9071C26.5091 48.931 26.7948 48.955 27.0815 48.979C33.1433 49.4864 39.6762 50.0332 44.5689 51.5332C47.131 52.3186 49.1121 53.3291 50.3379 54.6229C51.4013 55.7453 51.9429 57.1266 51.7267 58.9487C36.8678 63.6835 30.9613 70.6474 29.9628 78.1509C28.9731 85.5883 32.9 93.1212 36.4503 98.6534C37.3471 100.051 38.2308 101.336 39.0205 102.473C39.1552 102.667 39.2869 102.857 39.4152 103.041C40.044 103.945 40.5925 104.733 41.0303 105.406C41.2769 105.786 41.4719 106.105 41.6197 106.368C41.3493 106.279 41.026 106.159 40.6432 106.002C39.5608 105.559 38.0783 104.855 36.1072 103.85C32.1873 101.849 26.4184 98.6983 18.1875 94.1478C11.8862 87.9994 9.38893 83.6281 8.94319 80.352C8.51141 77.1785 9.98453 74.7966 12.4269 72.4939C13.6538 71.3372 15.0828 70.2414 16.5826 69.0958L16.6618 69.0352C18.1217 67.9201 19.6427 66.7583 21.0121 65.4948C23.8078 62.9151 26.1134 59.7823 26.1134 55.431C26.1134 53.273 25.4578 51.7092 24.0111 50.9167C22.6835 50.1894 20.9704 50.2919 19.3114 50.6256C17.6096 50.968 15.6937 51.6158 13.8147 52.2538L13.7261 52.2839C11.8474 52.9218 9.99463 53.5509 8.28369 53.9347C6.5272 54.3287 5.06967 54.4266 3.97657 54.1081C2.97872 53.8173 2.19688 53.157 1.76574 51.7192C1.31068 50.2017 1.25792 47.8303 1.90893 44.2364C2.55614 40.6636 3.87985 35.9802 6.07756 29.8958ZM41.9769 107.169C41.9765 107.169 41.9755 107.163 41.9749 107.153C41.9769 107.164 41.9772 107.169 41.9769 107.169Z" stroke="#E41088" stroke-width="2"/>
<rect x="3.896" y="26.5996" width="3.80983" height="11.5805" transform="rotate(-90 3.896 26.5996)" fill="#419EF4"/>
<rect x="12.0024" y="41.8387" width="6.34972" height="14.7652" transform="rotate(-90 12.0024 41.8387)" fill="#2D2D2D"/>
<rect x="14" y="101.349" width="6.34972" height="14.7652" transform="rotate(-90 14 101.349)" fill="#2D2D2D"/>
<rect x="47.0273" y="78.9995" width="6.34972" height="14.7652" transform="rotate(0.106499 47.0273 78.9995)" fill="#2D2D2D"/>
<rect x="3.60645" y="22.79" width="2.2224" height="4.92172" transform="rotate(-90 3.60645 22.79)" fill="#419EF4"/>
<rect x="0.421875" y="24.0596" width="2.2224" height="11.5805" transform="rotate(-90 0.421875 24.0596)" fill="#419EF4"/>
<rect x="0.961426" y="23.8096" width="1.40492" height="11.6595" transform="rotate(-90 0.961426 23.8096)" stroke="#2D2D2D" stroke-width="0.5"/>
<rect x="2.98779" y="26.668" width="1.40492" height="11.6595" transform="rotate(-90 2.98779 26.668)" stroke="#E41088" stroke-width="0.5"/>
<rect x="15.187" y="37.7118" width="2.2224" height="4.92172" transform="rotate(-90 15.187 37.7118)" fill="#419EF4"/>
<rect x="12.0024" y="38.9814" width="2.2224" height="11.5805" transform="rotate(-90 12.0024 38.9814)" fill="#419EF4"/>
<rect x="12.542" y="38.7314" width="1.40492" height="11.6595" transform="rotate(-90 12.542 38.7314)" stroke="#2D2D2D" stroke-width="0.5"/>
<rect x="14.8579" y="36.1914" width="0.769944" height="5.29026" transform="rotate(-90 14.8579 36.1914)" stroke="#E41088" stroke-width="0.5"/>
<rect x="4.43555" y="26.0322" width="1.40492" height="11.6595" transform="rotate(-90 4.43555 26.0322)" stroke="#FEFEFE" stroke-width="0.5"/>
<rect x="16.8843" y="41.9071" width="1.40492" height="11.6595" transform="rotate(-90 16.8843 41.9071)" stroke="#FEFEFE" stroke-width="0.5"/>
<rect x="35.3833" y="61.9995" width="6.34972" height="14.7652" fill="#2D2D2D"/>
<rect x="39" y="64.9995" width="4" height="15" fill="#419EF4"/>
<rect x="46" y="78.9995" width="4" height="4" fill="#419EF4"/>
<rect x="49" y="77.9995" width="3" height="19" fill="#419EF4"/>
<rect x="51" y="80.9995" width="4" height="10" fill="#419EF4"/>
<rect x="53" y="79.9995" width="4" height="10" fill="#E41088"/>
<rect x="54.15" y="79.1495" width="1.7" height="11.7" stroke="#2D2D2D" stroke-width="0.3"/>
<rect x="48.15" y="77.1495" width="1.7" height="11.7" stroke="#2D2D2D" stroke-width="0.3"/>
<rect x="16.8101" y="103.598" width="6.34972" height="14.7652" transform="rotate(-90.3194 16.8101 103.598)" fill="#419EF4"/>
<rect x="38.272" y="62.0151" width="2.2224" height="11.5805" fill="#419EF4"/>
<rect x="38.5107" y="62.5522" width="1.40492" height="11.6595" stroke="#2D2D2D" stroke-width="0.5"/>
<rect x="35.25" y="66.8306" width="1.40492" height="11.6595" stroke="#FEFEFE" stroke-width="0.5"/>
<rect x="16.6343" y="103.114" width="3.17486" height="14.7652" transform="rotate(-90 16.6343 103.114)" fill="#FEFEFE"/>
<rect x="17.1619" y="101.605" width="0.476229" height="11.6833" transform="rotate(-90 17.1619 101.605)" stroke="#419EF4" stroke-width="0.476229"/>
<rect x="21.5047" y="103.193" width="0.476229" height="11.6833" transform="rotate(-90 21.5047 103.193)" stroke="#E41088" stroke-width="0.476229"/>
</svg>
